<?xml version="1.0" encoding="utf-8" standalone="no"?>
<!DOCTYPE svg PUBLIC "-//W3C//DTD SVG 1.1//EN"
  "http://www.w3.org/Graphics/SVG/1.1/DTD/svg11.dtd">
<svg xmlns:xlink="http://www.w3.org/1999/xlink" width="576pt" height="360pt" viewBox="0 0 576 360" xmlns="http://www.w3.org/2000/svg" version="1.1">
 <metadata>
  <rdf:RDF xmlns:dc="http://purl.org/dc/elements/1.1/" xmlns:cc="http://creativecommons.org/ns#" xmlns:rdf="http://www.w3.org/1999/02/22-rdf-syntax-ns#">
   <cc:Work>
    <dc:type rdf:resource="http://purl.org/dc/dcmitype/StillImage"/>
    <dc:date>2025-02-20T11:31:55.278489</dc:date>
    <dc:format>image/svg+xml</dc:format>
    <dc:creator>
     <cc:Agent>
      <dc:title>Matplotlib v3.10.0, https://matplotlib.org/</dc:title>
     </cc:Agent>
    </dc:creator>
   </cc:Work>
  </rdf:RDF>
 </metadata>
 <defs>
  <style type="text/css">*{stroke-linejoin: round; stroke-linecap: butt}</style>
 </defs>
 <g id="figure_1">
  <g id="patch_1">
   <path d="M 0 360 
L 576 360 
L 576 0 
L 0 0 
z
" style="fill: #ffffff"/>
  </g>
  <g id="axes_1">
   <g id="patch_2">
    <path d="M 72 320.4 
L 518.4 320.4 
L 518.4 43.2 
L 72 43.2 
z
" style="fill: #ffffff"/>
   </g>
   <g id="matplotlib.axis_1">
    <g id="xtick_1">
     <g id="line2d_1">
      <path d="M 92.290909 320.4 
L 92.290909 43.2 
" clip-path="url(#p1452850668)" style="fill: none; stroke: #b0b0b0; stroke-width: 0.8; stroke-linecap: square"/>
     </g>
     <g id="line2d_2">
      <defs>
       <path id="m44d71e86c6" d="M 0 0 
L 0 3.5 
" style="stroke: #000000; stroke-width: 0.8"/>
      </defs>
      <g>
       <use xlink:href="#m44d71e86c6" x="92.290909" y="320.4" style="stroke: #000000; stroke-width: 0.8"/>
      </g>
     </g>
     <g id="text_1">
      <!-- 0 -->
      <g transform="translate(89.109659 334.998438) scale(0.1 -0.1)">
       <defs>
        <path id="DejaVuSans-30" d="M 2034 4250 
Q 1547 4250 1301 3770 
Q 1056 3291 1056 2328 
Q 1056 1369 1301 889 
Q 1547 409 2034 409 
Q 2525 409 2770 889 
Q 3016 1369 3016 2328 
Q 3016 3291 2770 3770 
Q 2525 4250 2034 4250 
z
M 2034 4750 
Q 2819 4750 3233 4129 
Q 3647 3509 3647 2328 
Q 3647 1150 3233 529 
Q 2819 -91 2034 -91 
Q 1250 -91 836 529 
Q 422 1150 422 2328 
Q 422 3509 836 4129 
Q 1250 4750 2034 4750 
z
" transform="scale(0.015625)"/>
       </defs>
       <use xlink:href="#DejaVuSans-30"/>
      </g>
     </g>
    </g>
    <g id="xtick_2">
     <g id="line2d_3">
      <path d="M 156.878879 320.4 
L 156.878879 43.2 
" clip-path="url(#p1452850668)" style="fill: none; stroke: #b0b0b0; stroke-width: 0.8; stroke-linecap: square"/>
     </g>
     <g id="line2d_4">
      <g>
       <use xlink:href="#m44d71e86c6" x="156.878879" y="320.4" style="stroke: #000000; stroke-width: 0.8"/>
      </g>
     </g>
     <g id="text_2">
      <!-- 1 -->
      <g transform="translate(153.697629 334.998438) scale(0.1 -0.1)">
       <defs>
        <path id="DejaVuSans-31" d="M 794 531 
L 1825 531 
L 1825 4091 
L 703 3866 
L 703 4441 
L 1819 4666 
L 2450 4666 
L 2450 531 
L 3481 531 
L 3481 0 
L 794 0 
L 794 531 
z
" transform="scale(0.015625)"/>
       </defs>
       <use xlink:href="#DejaVuSans-31"/>
      </g>
     </g>
    </g>
    <g id="xtick_3">
     <g id="line2d_5">
      <path d="M 221.466848 320.4 
L 221.466848 43.2 
" clip-path="url(#p1452850668)" style="fill: none; stroke: #b0b0b0; stroke-width: 0.8; stroke-linecap: square"/>
     </g>
     <g id="line2d_6">
      <g>
       <use xlink:href="#m44d71e86c6" x="221.466848" y="320.4" style="stroke: #000000; stroke-width: 0.8"/>
      </g>
     </g>
     <g id="text_3">
      <!-- 2 -->
      <g transform="translate(218.285598 334.998438) scale(0.1 -0.1)">
       <defs>
        <path id="DejaVuSans-32" d="M 1228 531 
L 3431 531 
L 3431 0 
L 469 0 
L 469 531 
Q 828 903 1448 1529 
Q 2069 2156 2228 2338 
Q 2531 2678 2651 2914 
Q 2772 3150 2772 3378 
Q 2772 3750 2511 3984 
Q 2250 4219 1831 4219 
Q 1534 4219 1204 4116 
Q 875 4013 500 3803 
L 500 4441 
Q 881 4594 1212 4672 
Q 1544 4750 1819 4750 
Q 2544 4750 2975 4387 
Q 3406 4025 3406 3419 
Q 3406 3131 3298 2873 
Q 3191 2616 2906 2266 
Q 2828 2175 2409 1742 
Q 1991 1309 1228 531 
z
" transform="scale(0.015625)"/>
       </defs>
       <use xlink:href="#DejaVuSans-32"/>
      </g>
     </g>
    </g>
    <g id="xtick_4">
     <g id="line2d_7">
      <path d="M 286.054818 320.4 
L 286.054818 43.2 
" clip-path="url(#p1452850668)" style="fill: none; stroke: #b0b0b0; stroke-width: 0.8; stroke-linecap: square"/>
     </g>
     <g id="line2d_8">
      <g>
       <use xlink:href="#m44d71e86c6" x="286.054818" y="320.4" style="stroke: #000000; stroke-width: 0.8"/>
      </g>
     </g>
     <g id="text_4">
      <!-- 3 -->
      <g transform="translate(282.873568 334.998438) scale(0.1 -0.1)">
       <defs>
        <path id="DejaVuSans-33" d="M 2597 2516 
Q 3050 2419 3304 2112 
Q 3559 1806 3559 1356 
Q 3559 666 3084 287 
Q 2609 -91 1734 -91 
Q 1441 -91 1130 -33 
Q 819 25 488 141 
L 488 750 
Q 750 597 1062 519 
Q 1375 441 1716 441 
Q 2309 441 2620 675 
Q 2931 909 2931 1356 
Q 2931 1769 2642 2001 
Q 2353 2234 1838 2234 
L 1294 2234 
L 1294 2753 
L 1863 2753 
Q 2328 2753 2575 2939 
Q 2822 3125 2822 3475 
Q 2822 3834 2567 4026 
Q 2313 4219 1838 4219 
Q 1578 4219 1281 4162 
Q 984 4106 628 3988 
L 628 4550 
Q 988 4650 1302 4700 
Q 1616 4750 1894 4750 
Q 2613 4750 3031 4423 
Q 3450 4097 3450 3541 
Q 3450 3153 3228 2886 
Q 3006 2619 2597 2516 
z
" transform="scale(0.015625)"/>
       </defs>
       <use xlink:href="#DejaVuSans-33"/>
      </g>
     </g>
    </g>
    <g id="xtick_5">
     <g id="line2d_9">
      <path d="M 350.642788 320.4 
L 350.642788 43.2 
" clip-path="url(#p1452850668)" style="fill: none; stroke: #b0b0b0; stroke-width: 0.8; stroke-linecap: square"/>
     </g>
     <g id="line2d_10">
      <g>
       <use xlink:href="#m44d71e86c6" x="350.642788" y="320.4" style="stroke: #000000; stroke-width: 0.8"/>
      </g>
     </g>
     <g id="text_5">
      <!-- 4 -->
      <g transform="translate(347.461538 334.998438) scale(0.1 -0.1)">
       <defs>
        <path id="DejaVuSans-34" d="M 2419 4116 
L 825 1625 
L 2419 1625 
L 2419 4116 
z
M 2253 4666 
L 3047 4666 
L 3047 1625 
L 3713 1625 
L 3713 1100 
L 3047 1100 
L 3047 0 
L 2419 0 
L 2419 1100 
L 313 1100 
L 313 1709 
L 2253 4666 
z
" transform="scale(0.015625)"/>
       </defs>
       <use xlink:href="#DejaVuSans-34"/>
      </g>
     </g>
    </g>
    <g id="xtick_6">
     <g id="line2d_11">
      <path d="M 415.230757 320.4 
L 415.230757 43.2 
" clip-path="url(#p1452850668)" style="fill: none; stroke: #b0b0b0; stroke-width: 0.8; stroke-linecap: square"/>
     </g>
     <g id="line2d_12">
      <g>
       <use xlink:href="#m44d71e86c6" x="415.230757" y="320.4" style="stroke: #000000; stroke-width: 0.8"/>
      </g>
     </g>
     <g id="text_6">
      <!-- 5 -->
      <g transform="translate(412.049507 334.998438) scale(0.1 -0.1)">
       <defs>
        <path id="DejaVuSans-35" d="M 691 4666 
L 3169 4666 
L 3169 4134 
L 1269 4134 
L 1269 2991 
Q 1406 3038 1543 3061 
Q 1681 3084 1819 3084 
Q 2600 3084 3056 2656 
Q 3513 2228 3513 1497 
Q 3513 744 3044 326 
Q 2575 -91 1722 -91 
Q 1428 -91 1123 -41 
Q 819 9 494 109 
L 494 744 
Q 775 591 1075 516 
Q 1375 441 1709 441 
Q 2250 441 2565 725 
Q 2881 1009 2881 1497 
Q 2881 1984 2565 2268 
Q 2250 2553 1709 2553 
Q 1456 2553 1204 2497 
Q 953 2441 691 2322 
L 691 4666 
z
" transform="scale(0.015625)"/>
       </defs>
       <use xlink:href="#DejaVuSans-35"/>
      </g>
     </g>
    </g>
    <g id="xtick_7">
     <g id="line2d_13">
      <path d="M 479.818727 320.4 
L 479.818727 43.2 
" clip-path="url(#p1452850668)" style="fill: none; stroke: #b0b0b0; stroke-width: 0.8; stroke-linecap: square"/>
     </g>
     <g id="line2d_14">
      <g>
       <use xlink:href="#m44d71e86c6" x="479.818727" y="320.4" style="stroke: #000000; stroke-width: 0.8"/>
      </g>
     </g>
     <g id="text_7">
      <!-- 6 -->
      <g transform="translate(476.637477 334.998438) scale(0.1 -0.1)">
       <defs>
        <path id="DejaVuSans-36" d="M 2113 2584 
Q 1688 2584 1439 2293 
Q 1191 2003 1191 1497 
Q 1191 994 1439 701 
Q 1688 409 2113 409 
Q 2538 409 2786 701 
Q 3034 994 3034 1497 
Q 3034 2003 2786 2293 
Q 2538 2584 2113 2584 
z
M 3366 4563 
L 3366 3988 
Q 3128 4100 2886 4159 
Q 2644 4219 2406 4219 
Q 1781 4219 1451 3797 
Q 1122 3375 1075 2522 
Q 1259 2794 1537 2939 
Q 1816 3084 2150 3084 
Q 2853 3084 3261 2657 
Q 3669 2231 3669 1497 
Q 3669 778 3244 343 
Q 2819 -91 2113 -91 
Q 1303 -91 875 529 
Q 447 1150 447 2328 
Q 447 3434 972 4092 
Q 1497 4750 2381 4750 
Q 2619 4750 2861 4703 
Q 3103 4656 3366 4563 
z
" transform="scale(0.015625)"/>
       </defs>
       <use xlink:href="#DejaVuSans-36"/>
      </g>
     </g>
    </g>
    <g id="text_8">
     <!-- Time ($t$) -->
     <g transform="translate(275.35 348.676562) scale(0.1 -0.1)">
      <defs>
       <path id="DejaVuSans-54" d="M -19 4666 
L 3928 4666 
L 3928 4134 
L 2272 4134 
L 2272 0 
L 1638 0 
L 1638 4134 
L -19 4134 
L -19 4666 
z
" transform="scale(0.015625)"/>
       <path id="DejaVuSans-69" d="M 603 3500 
L 1178 3500 
L 1178 0 
L 603 0 
L 603 3500 
z
M 603 4863 
L 1178 4863 
L 1178 4134 
L 603 4134 
L 603 4863 
z
" transform="scale(0.015625)"/>
       <path id="DejaVuSans-6d" d="M 3328 2828 
Q 3544 3216 3844 3400 
Q 4144 3584 4550 3584 
Q 5097 3584 5394 3201 
Q 5691 2819 5691 2113 
L 5691 0 
L 5113 0 
L 5113 2094 
Q 5113 2597 4934 2840 
Q 4756 3084 4391 3084 
Q 3944 3084 3684 2787 
Q 3425 2491 3425 1978 
L 3425 0 
L 2847 0 
L 2847 2094 
Q 2847 2600 2669 2842 
Q 2491 3084 2119 3084 
Q 1678 3084 1418 2786 
Q 1159 2488 1159 1978 
L 1159 0 
L 581 0 
L 581 3500 
L 1159 3500 
L 1159 2956 
Q 1356 3278 1631 3431 
Q 1906 3584 2284 3584 
Q 2666 3584 2933 3390 
Q 3200 3197 3328 2828 
z
" transform="scale(0.015625)"/>
       <path id="DejaVuSans-65" d="M 3597 1894 
L 3597 1613 
L 953 1613 
Q 991 1019 1311 708 
Q 1631 397 2203 397 
Q 2534 397 2845 478 
Q 3156 559 3463 722 
L 3463 178 
Q 3153 47 2828 -22 
Q 2503 -91 2169 -91 
Q 1331 -91 842 396 
Q 353 884 353 1716 
Q 353 2575 817 3079 
Q 1281 3584 2069 3584 
Q 2775 3584 3186 3129 
Q 3597 2675 3597 1894 
z
M 3022 2063 
Q 3016 2534 2758 2815 
Q 2500 3097 2075 3097 
Q 1594 3097 1305 2825 
Q 1016 2553 972 2059 
L 3022 2063 
z
" transform="scale(0.015625)"/>
       <path id="DejaVuSans-20" transform="scale(0.015625)"/>
       <path id="DejaVuSans-28" d="M 1984 4856 
Q 1566 4138 1362 3434 
Q 1159 2731 1159 2009 
Q 1159 1288 1364 580 
Q 1569 -128 1984 -844 
L 1484 -844 
Q 1016 -109 783 600 
Q 550 1309 550 2009 
Q 550 2706 781 3412 
Q 1013 4119 1484 4856 
L 1984 4856 
z
" transform="scale(0.015625)"/>
       <path id="DejaVuSans-Oblique-74" d="M 2706 3500 
L 2619 3053 
L 1472 3053 
L 1100 1153 
Q 1081 1047 1072 975 
Q 1063 903 1063 863 
Q 1063 663 1183 572 
Q 1303 481 1569 481 
L 2150 481 
L 2053 0 
L 1503 0 
Q 991 0 739 200 
Q 488 400 488 806 
Q 488 878 497 964 
Q 506 1050 525 1153 
L 897 3053 
L 409 3053 
L 500 3500 
L 978 3500 
L 1172 4494 
L 1747 4494 
L 1556 3500 
L 2706 3500 
z
" transform="scale(0.015625)"/>
       <path id="DejaVuSans-29" d="M 513 4856 
L 1013 4856 
Q 1481 4119 1714 3412 
Q 1947 2706 1947 2009 
Q 1947 1309 1714 600 
Q 1481 -109 1013 -844 
L 513 -844 
Q 928 -128 1133 580 
Q 1338 1288 1338 2009 
Q 1338 2731 1133 3434 
Q 928 4138 513 4856 
z
" transform="scale(0.015625)"/>
      </defs>
      <use xlink:href="#DejaVuSans-54" transform="translate(0 0.015625)"/>
      <use xlink:href="#DejaVuSans-69" transform="translate(61.083984 0.015625)"/>
      <use xlink:href="#DejaVuSans-6d" transform="translate(88.867188 0.015625)"/>
      <use xlink:href="#DejaVuSans-65" transform="translate(186.279297 0.015625)"/>
      <use xlink:href="#DejaVuSans-20" transform="translate(247.802734 0.015625)"/>
      <use xlink:href="#DejaVuSans-28" transform="translate(279.589844 0.015625)"/>
      <use xlink:href="#DejaVuSans-Oblique-74" transform="translate(318.603516 0.015625)"/>
      <use xlink:href="#DejaVuSans-29" transform="translate(357.8125 0.015625)"/>
     </g>
    </g>
   </g>
   <g id="matplotlib.axis_2">
    <g id="ytick_1">
     <g id="line2d_15">
      <path d="M 72 307.800156 
L 518.4 307.800156 
" clip-path="url(#p1452850668)" style="fill: none; stroke: #b0b0b0; stroke-width: 0.8; stroke-linecap: square"/>
     </g>
     <g id="line2d_16">
      <defs>
       <path id="m5d8a76bb20" d="M 0 0 
L -3.5 0 
" style="stroke: #000000; stroke-width: 0.8"/>
      </defs>
      <g>
       <use xlink:href="#m5d8a76bb20" x="72" y="307.800156" style="stroke: #000000; stroke-width: 0.8"/>
      </g>
     </g>
     <g id="text_9">
      <!-- −1.00 -->
      <g transform="translate(34.354687 311.599375) scale(0.1 -0.1)">
       <defs>
        <path id="DejaVuSans-2212" d="M 678 2272 
L 4684 2272 
L 4684 1741 
L 678 1741 
L 678 2272 
z
" transform="scale(0.015625)"/>
        <path id="DejaVuSans-2e" d="M 684 794 
L 1344 794 
L 1344 0 
L 684 0 
L 684 794 
z
" transform="scale(0.015625)"/>
       </defs>
       <use xlink:href="#DejaVuSans-2212"/>
       <use xlink:href="#DejaVuSans-31" transform="translate(83.789062 0)"/>
       <use xlink:href="#DejaVuSans-2e" transform="translate(147.412109 0)"/>
       <use xlink:href="#DejaVuSans-30" transform="translate(179.199219 0)"/>
       <use xlink:href="#DejaVuSans-30" transform="translate(242.822266 0)"/>
      </g>
     </g>
    </g>
    <g id="ytick_2">
     <g id="line2d_17">
      <path d="M 72 276.300117 
L 518.4 276.300117 
" clip-path="url(#p1452850668)" style="fill: none; stroke: #b0b0b0; stroke-width: 0.8; stroke-linecap: square"/>
     </g>
     <g id="line2d_18">
      <g>
       <use xlink:href="#m5d8a76bb20" x="72" y="276.300117" style="stroke: #000000; stroke-width: 0.8"/>
      </g>
     </g>
     <g id="text_10">
      <!-- −0.75 -->
      <g transform="translate(34.354687 280.099336) scale(0.1 -0.1)">
       <defs>
        <path id="DejaVuSans-37" d="M 525 4666 
L 3525 4666 
L 3525 4397 
L 1831 0 
L 1172 0 
L 2766 4134 
L 525 4134 
L 525 4666 
z
" transform="scale(0.015625)"/>
       </defs>
       <use xlink:href="#DejaVuSans-2212"/>
       <use xlink:href="#DejaVuSans-30" transform="translate(83.789062 0)"/>
       <use xlink:href="#DejaVuSans-2e" transform="translate(147.412109 0)"/>
       <use xlink:href="#DejaVuSans-37" transform="translate(179.199219 0)"/>
       <use xlink:href="#DejaVuSans-35" transform="translate(242.822266 0)"/>
      </g>
     </g>
    </g>
    <g id="ytick_3">
     <g id="line2d_19">
      <path d="M 72 244.800078 
L 518.4 244.800078 
" clip-path="url(#p1452850668)" style="fill: none; stroke: #b0b0b0; stroke-width: 0.8; stroke-linecap: square"/>
     </g>
     <g id="line2d_20">
      <g>
       <use xlink:href="#m5d8a76bb20" x="72" y="244.800078" style="stroke: #000000; stroke-width: 0.8"/>
      </g>
     </g>
     <g id="text_11">
      <!-- −0.50 -->
      <g transform="translate(34.354687 248.599297) scale(0.1 -0.1)">
       <use xlink:href="#DejaVuSans-2212"/>
       <use xlink:href="#DejaVuSans-30" transform="translate(83.789062 0)"/>
       <use xlink:href="#DejaVuSans-2e" transform="translate(147.412109 0)"/>
       <use xlink:href="#DejaVuSans-35" transform="translate(179.199219 0)"/>
       <use xlink:href="#DejaVuSans-30" transform="translate(242.822266 0)"/>
      </g>
     </g>
    </g>
    <g id="ytick_4">
     <g id="line2d_21">
      <path d="M 72 213.300039 
L 518.4 213.300039 
" clip-path="url(#p1452850668)" style="fill: none; stroke: #b0b0b0; stroke-width: 0.8; stroke-linecap: square"/>
     </g>
     <g id="line2d_22">
      <g>
       <use xlink:href="#m5d8a76bb20" x="72" y="213.300039" style="stroke: #000000; stroke-width: 0.8"/>
      </g>
     </g>
     <g id="text_12">
      <!-- −0.25 -->
      <g transform="translate(34.354687 217.099258) scale(0.1 -0.1)">
       <use xlink:href="#DejaVuSans-2212"/>
       <use xlink:href="#DejaVuSans-30" transform="translate(83.789062 0)"/>
       <use xlink:href="#DejaVuSans-2e" transform="translate(147.412109 0)"/>
       <use xlink:href="#DejaVuSans-32" transform="translate(179.199219 0)"/>
       <use xlink:href="#DejaVuSans-35" transform="translate(242.822266 0)"/>
      </g>
     </g>
    </g>
    <g id="ytick_5">
     <g id="line2d_23">
      <path d="M 72 181.8 
L 518.4 181.8 
" clip-path="url(#p1452850668)" style="fill: none; stroke: #b0b0b0; stroke-width: 0.8; stroke-linecap: square"/>
     </g>
     <g id="line2d_24">
      <g>
       <use xlink:href="#m5d8a76bb20" x="72" y="181.8" style="stroke: #000000; stroke-width: 0.8"/>
      </g>
     </g>
     <g id="text_13">
      <!-- 0.00 -->
      <g transform="translate(42.734375 185.599219) scale(0.1 -0.1)">
       <use xlink:href="#DejaVuSans-30"/>
       <use xlink:href="#DejaVuSans-2e" transform="translate(63.623047 0)"/>
       <use xlink:href="#DejaVuSans-30" transform="translate(95.410156 0)"/>
       <use xlink:href="#DejaVuSans-30" transform="translate(159.033203 0)"/>
      </g>
     </g>
    </g>
    <g id="ytick_6">
     <g id="line2d_25">
      <path d="M 72 150.299961 
L 518.4 150.299961 
" clip-path="url(#p1452850668)" style="fill: none; stroke: #b0b0b0; stroke-width: 0.8; stroke-linecap: square"/>
     </g>
     <g id="line2d_26">
      <g>
       <use xlink:href="#m5d8a76bb20" x="72" y="150.299961" style="stroke: #000000; stroke-width: 0.8"/>
      </g>
     </g>
     <g id="text_14">
      <!-- 0.25 -->
      <g transform="translate(42.734375 154.09918) scale(0.1 -0.1)">
       <use xlink:href="#DejaVuSans-30"/>
       <use xlink:href="#DejaVuSans-2e" transform="translate(63.623047 0)"/>
       <use xlink:href="#DejaVuSans-32" transform="translate(95.410156 0)"/>
       <use xlink:href="#DejaVuSans-35" transform="translate(159.033203 0)"/>
      </g>
     </g>
    </g>
    <g id="ytick_7">
     <g id="line2d_27">
      <path d="M 72 118.799922 
L 518.4 118.799922 
" clip-path="url(#p1452850668)" style="fill: none; stroke: #b0b0b0; stroke-width: 0.8; stroke-linecap: square"/>
     </g>
     <g id="line2d_28">
      <g>
       <use xlink:href="#m5d8a76bb20" x="72" y="118.799922" style="stroke: #000000; stroke-width: 0.8"/>
      </g>
     </g>
     <g id="text_15">
      <!-- 0.50 -->
      <g transform="translate(42.734375 122.599141) scale(0.1 -0.1)">
       <use xlink:href="#DejaVuSans-30"/>
       <use xlink:href="#DejaVuSans-2e" transform="translate(63.623047 0)"/>
       <use xlink:href="#DejaVuSans-35" transform="translate(95.410156 0)"/>
       <use xlink:href="#DejaVuSans-30" transform="translate(159.033203 0)"/>
      </g>
     </g>
    </g>
    <g id="ytick_8">
     <g id="line2d_29">
      <path d="M 72 87.299883 
L 518.4 87.299883 
" clip-path="url(#p1452850668)" style="fill: none; stroke: #b0b0b0; stroke-width: 0.8; stroke-linecap: square"/>
     </g>
     <g id="line2d_30">
      <g>
       <use xlink:href="#m5d8a76bb20" x="72" y="87.299883" style="stroke: #000000; stroke-width: 0.8"/>
      </g>
     </g>
     <g id="text_16">
      <!-- 0.75 -->
      <g transform="translate(42.734375 91.099102) scale(0.1 -0.1)">
       <use xlink:href="#DejaVuSans-30"/>
       <use xlink:href="#DejaVuSans-2e" transform="translate(63.623047 0)"/>
       <use xlink:href="#DejaVuSans-37" transform="translate(95.410156 0)"/>
       <use xlink:href="#DejaVuSans-35" transform="translate(159.033203 0)"/>
      </g>
     </g>
    </g>
    <g id="ytick_9">
     <g id="line2d_31">
      <path d="M 72 55.799844 
L 518.4 55.799844 
" clip-path="url(#p1452850668)" style="fill: none; stroke: #b0b0b0; stroke-width: 0.8; stroke-linecap: square"/>
     </g>
     <g id="line2d_32">
      <g>
       <use xlink:href="#m5d8a76bb20" x="72" y="55.799844" style="stroke: #000000; stroke-width: 0.8"/>
      </g>
     </g>
     <g id="text_17">
      <!-- 1.00 -->
      <g transform="translate(42.734375 59.599063) scale(0.1 -0.1)">
       <use xlink:href="#DejaVuSans-31"/>
       <use xlink:href="#DejaVuSans-2e" transform="translate(63.623047 0)"/>
       <use xlink:href="#DejaVuSans-30" transform="translate(95.410156 0)"/>
       <use xlink:href="#DejaVuSans-30" transform="translate(159.033203 0)"/>
      </g>
     </g>
    </g>
    <g id="text_18">
     <!-- $\sin(t)$ -->
     <g transform="translate(28.275 194.85) rotate(-90) scale(0.1 -0.1)">
      <defs>
       <path id="DejaVuSans-73" d="M 2834 3397 
L 2834 2853 
Q 2591 2978 2328 3040 
Q 2066 3103 1784 3103 
Q 1356 3103 1142 2972 
Q 928 2841 928 2578 
Q 928 2378 1081 2264 
Q 1234 2150 1697 2047 
L 1894 2003 
Q 2506 1872 2764 1633 
Q 3022 1394 3022 966 
Q 3022 478 2636 193 
Q 2250 -91 1575 -91 
Q 1294 -91 989 -36 
Q 684 19 347 128 
L 347 722 
Q 666 556 975 473 
Q 1284 391 1588 391 
Q 1994 391 2212 530 
Q 2431 669 2431 922 
Q 2431 1156 2273 1281 
Q 2116 1406 1581 1522 
L 1381 1569 
Q 847 1681 609 1914 
Q 372 2147 372 2553 
Q 372 3047 722 3315 
Q 1072 3584 1716 3584 
Q 2034 3584 2315 3537 
Q 2597 3491 2834 3397 
z
" transform="scale(0.015625)"/>
       <path id="DejaVuSans-6e" d="M 3513 2113 
L 3513 0 
L 2938 0 
L 2938 2094 
Q 2938 2591 2744 2837 
Q 2550 3084 2163 3084 
Q 1697 3084 1428 2787 
Q 1159 2491 1159 1978 
L 1159 0 
L 581 0 
L 581 3500 
L 1159 3500 
L 1159 2956 
Q 1366 3272 1645 3428 
Q 1925 3584 2291 3584 
Q 2894 3584 3203 3211 
Q 3513 2838 3513 2113 
z
" transform="scale(0.015625)"/>
      </defs>
      <use xlink:href="#DejaVuSans-73" transform="translate(0 0.015625)"/>
      <use xlink:href="#DejaVuSans-69" transform="translate(52.099609 0.015625)"/>
      <use xlink:href="#DejaVuSans-6e" transform="translate(79.882812 0.015625)"/>
      <use xlink:href="#DejaVuSans-28" transform="translate(143.261719 0.015625)"/>
      <use xlink:href="#DejaVuSans-Oblique-74" transform="translate(182.275391 0.015625)"/>
      <use xlink:href="#DejaVuSans-29" transform="translate(221.484375 0.015625)"/>
     </g>
    </g>
   </g>
   <g id="line2d_33">
    <path d="M 92.290909 181.8 
L 106.914988 153.514048 
L 114.633251 139.077963 
L 121.132842 127.385717 
L 126.819984 117.602732 
L 132.100901 108.962364 
L 136.975594 101.41733 
L 141.444062 94.902091 
L 145.506306 89.339155 
L 149.56855 84.141849 
L 153.22457 79.793907 
L 156.88059 75.772721 
L 160.536609 72.091173 
L 163.786405 69.113372 
L 167.0362 66.420797 
L 170.285995 64.020264 
L 173.53579 61.917848 
L 176.379361 60.326986 
L 179.222932 58.971539 
L 182.066503 57.854135 
L 184.910074 56.976938 
L 187.753645 56.341648 
L 190.597215 55.949498 
L 193.440786 55.801246 
L 196.284357 55.89718 
L 199.127928 56.237115 
L 201.971499 56.820391 
L 204.81507 57.645878 
L 207.65864 58.711976 
L 210.502211 60.016619 
L 213.345782 61.557279 
L 216.189353 63.330969 
L 219.439148 65.638958 
L 222.688943 68.240968 
L 225.938739 71.130412 
L 229.188534 74.299977 
L 232.844554 78.190553 
L 236.500573 82.413022 
L 240.562817 87.477424 
L 244.625061 92.91482 
L 249.09353 99.301058 
L 253.561998 106.082016 
L 258.436691 113.891432 
L 263.717609 122.786499 
L 269.40475 132.805 
L 275.904341 144.714896 
L 283.622604 159.335222 
L 295.403112 182.196237 
L 309.620966 209.699689 
L 317.33923 224.149061 
L 323.838821 235.856631 
L 329.525962 245.656001 
L 334.80688 254.313953 
L 339.681572 261.877142 
L 344.150041 268.410553 
L 348.212285 273.991205 
L 352.274529 279.207292 
L 355.930549 283.572989 
L 359.586568 287.612675 
L 363.242588 291.313412 
L 366.492383 294.308797 
L 369.742179 297.019406 
L 372.991974 299.438378 
L 376.241769 301.559589 
L 379.08534 303.167154 
L 381.928911 304.539509 
L 384.772482 305.673994 
L 387.616052 306.56841 
L 390.459623 307.221025 
L 393.303194 307.630574 
L 396.146765 307.796262 
L 398.990336 307.717769 
L 401.833907 307.395247 
L 404.677477 306.82932 
L 407.521048 306.021087 
L 410.364619 304.972112 
L 413.20819 303.68443 
L 416.051761 302.160535 
L 418.895332 300.40338 
L 422.145127 298.113969 
L 425.394922 295.530151 
L 428.644717 292.658465 
L 431.894513 289.506179 
L 435.550532 285.634417 
L 439.206552 281.430042 
L 442.862572 276.906521 
L 446.924816 271.523739 
L 450.98706 265.786149 
L 455.455528 259.092116 
L 460.330221 251.368925 
L 465.611138 242.556586 
L 471.29828 232.614139 
L 477.797871 220.773872 
L 485.516134 206.211365 
L 496.484193 184.969565 
L 498.109091 181.8 
L 498.109091 181.8 
" clip-path="url(#p1452850668)" style="fill: none; stroke: #0000ff; stroke-width: 1.5; stroke-linecap: square"/>
   </g>
   <g id="line2d_34">
    <defs>
     <path id="m163783341c" d="M 0 3 
C 0.795609 3 1.55874 2.683901 2.12132 2.12132 
C 2.683901 1.55874 3 0.795609 3 0 
C 3 -0.795609 2.683901 -1.55874 2.12132 -2.12132 
C 1.55874 -2.683901 0.795609 -3 0 -3 
C -0.795609 -3 -1.55874 -2.683901 -2.12132 -2.12132 
C -2.683901 -1.55874 -3 -0.795609 -3 0 
C -3 0.795609 -2.683901 1.55874 -2.12132 2.12132 
C -1.55874 2.683901 -0.795609 3 0 3 
z
" style="stroke: #ff0000"/>
    </defs>
    <g clip-path="url(#p1452850668)">
     <use xlink:href="#m163783341c" x="92.290909" y="181.8" style="fill: #ff0000; stroke: #ff0000"/>
     <use xlink:href="#m163783341c" x="105.208503" y="156.767633" style="fill: #ff0000; stroke: #ff0000"/>
     <use xlink:href="#m163783341c" x="118.126097" y="132.733228" style="fill: #ff0000; stroke: #ff0000"/>
     <use xlink:href="#m163783341c" x="131.043691" y="110.65496" style="fill: #ff0000; stroke: #ff0000"/>
     <use xlink:href="#m163783341c" x="143.961285" y="91.413021" style="fill: #ff0000; stroke: #ff0000"/>
     <use xlink:href="#m163783341c" x="156.878879" y="75.774525" style="fill: #ff0000; stroke: #ff0000"/>
     <use xlink:href="#m163783341c" x="169.796473" y="64.36293" style="fill: #ff0000; stroke: #ff0000"/>
     <use xlink:href="#m163783341c" x="182.714067" y="57.633181" style="fill: #ff0000; stroke: #ff0000"/>
     <use xlink:href="#m163783341c" x="195.631661" y="55.85357" style="fill: #ff0000; stroke: #ff0000"/>
     <use xlink:href="#m163783341c" x="208.549254" y="59.095047" style="fill: #ff0000; stroke: #ff0000"/>
     <use xlink:href="#m163783341c" x="221.466848" y="67.228383" style="fill: #ff0000; stroke: #ff0000"/>
     <use xlink:href="#m163783341c" x="234.384442" y="79.929327" style="fill: #ff0000; stroke: #ff0000"/>
     <use xlink:href="#m163783341c" x="247.302036" y="96.691534" style="fill: #ff0000; stroke: #ff0000"/>
     <use xlink:href="#m163783341c" x="260.21963" y="116.846747" style="fill: #ff0000; stroke: #ff0000"/>
     <use xlink:href="#m163783341c" x="273.137224" y="139.591441" style="fill: #ff0000; stroke: #ff0000"/>
     <use xlink:href="#m163783341c" x="286.054818" y="164.018857" style="fill: #ff0000; stroke: #ff0000"/>
     <use xlink:href="#m163783341c" x="298.972412" y="189.155151" style="fill: #ff0000; stroke: #ff0000"/>
     <use xlink:href="#m163783341c" x="311.890006" y="213.998219" style="fill: #ff0000; stroke: #ff0000"/>
     <use xlink:href="#m163783341c" x="324.8076" y="237.557645" style="fill: #ff0000; stroke: #ff0000"/>
     <use xlink:href="#m163783341c" x="337.725194" y="258.89419" style="fill: #ff0000; stroke: #ff0000"/>
     <use xlink:href="#m163783341c" x="350.642788" y="277.157232" style="fill: #ff0000; stroke: #ff0000"/>
     <use xlink:href="#m163783341c" x="363.560382" y="291.618683" style="fill: #ff0000; stroke: #ff0000"/>
     <use xlink:href="#m163783341c" x="376.477975" y="301.70201" style="fill: #ff0000; stroke: #ff0000"/>
     <use xlink:href="#m163783341c" x="389.395569" y="307.005221" style="fill: #ff0000; stroke: #ff0000"/>
     <use xlink:href="#m163783341c" x="402.313163" y="307.316896" style="fill: #ff0000; stroke: #ff0000"/>
     <use xlink:href="#m163783341c" x="415.230757" y="302.624608" style="fill: #ff0000; stroke: #ff0000"/>
     <use xlink:href="#m163783341c" x="428.148351" y="293.115424" style="fill: #ff0000; stroke: #ff0000"/>
     <use xlink:href="#m163783341c" x="441.065945" y="279.168446" style="fill: #ff0000; stroke: #ff0000"/>
     <use xlink:href="#m163783341c" x="453.983539" y="261.339695" style="fill: #ff0000; stroke: #ff0000"/>
     <use xlink:href="#m163783341c" x="466.901133" y="240.339947" style="fill: #ff0000; stroke: #ff0000"/>
     <use xlink:href="#m163783341c" x="479.818727" y="217.006396" style="fill: #ff0000; stroke: #ff0000"/>
     <use xlink:href="#m163783341c" x="492.736321" y="192.269278" style="fill: #ff0000; stroke: #ff0000"/>
    </g>
   </g>
   <g id="patch_3">
    <path d="M 72 320.4 
L 72 43.2 
" style="fill: none; stroke: #000000; stroke-width: 0.8; stroke-linejoin: miter; stroke-linecap: square"/>
   </g>
   <g id="patch_4">
    <path d="M 518.4 320.4 
L 518.4 43.2 
" style="fill: none; stroke: #000000; stroke-width: 0.8; stroke-linejoin: miter; stroke-linecap: square"/>
   </g>
   <g id="patch_5">
    <path d="M 72 320.4 
L 518.4 320.4 
" style="fill: none; stroke: #000000; stroke-width: 0.8; stroke-linejoin: miter; stroke-linecap: square"/>
   </g>
   <g id="patch_6">
    <path d="M 72 43.2 
L 518.4 43.2 
" style="fill: none; stroke: #000000; stroke-width: 0.8; stroke-linejoin: miter; stroke-linecap: square"/>
   </g>
   <g id="text_19">
    <!-- Smooth Continuaton of the Sine function with Step Size 0.2 -->
    <g transform="translate(116.738438 37.2) scale(0.12 -0.12)">
     <defs>
      <path id="DejaVuSans-53" d="M 3425 4513 
L 3425 3897 
Q 3066 4069 2747 4153 
Q 2428 4238 2131 4238 
Q 1616 4238 1336 4038 
Q 1056 3838 1056 3469 
Q 1056 3159 1242 3001 
Q 1428 2844 1947 2747 
L 2328 2669 
Q 3034 2534 3370 2195 
Q 3706 1856 3706 1288 
Q 3706 609 3251 259 
Q 2797 -91 1919 -91 
Q 1588 -91 1214 -16 
Q 841 59 441 206 
L 441 856 
Q 825 641 1194 531 
Q 1563 422 1919 422 
Q 2459 422 2753 634 
Q 3047 847 3047 1241 
Q 3047 1584 2836 1778 
Q 2625 1972 2144 2069 
L 1759 2144 
Q 1053 2284 737 2584 
Q 422 2884 422 3419 
Q 422 4038 858 4394 
Q 1294 4750 2059 4750 
Q 2388 4750 2728 4690 
Q 3069 4631 3425 4513 
z
" transform="scale(0.015625)"/>
      <path id="DejaVuSans-6f" d="M 1959 3097 
Q 1497 3097 1228 2736 
Q 959 2375 959 1747 
Q 959 1119 1226 758 
Q 1494 397 1959 397 
Q 2419 397 2687 759 
Q 2956 1122 2956 1747 
Q 2956 2369 2687 2733 
Q 2419 3097 1959 3097 
z
M 1959 3584 
Q 2709 3584 3137 3096 
Q 3566 2609 3566 1747 
Q 3566 888 3137 398 
Q 2709 -91 1959 -91 
Q 1206 -91 779 398 
Q 353 888 353 1747 
Q 353 2609 779 3096 
Q 1206 3584 1959 3584 
z
" transform="scale(0.015625)"/>
      <path id="DejaVuSans-74" d="M 1172 4494 
L 1172 3500 
L 2356 3500 
L 2356 3053 
L 1172 3053 
L 1172 1153 
Q 1172 725 1289 603 
Q 1406 481 1766 481 
L 2356 481 
L 2356 0 
L 1766 0 
Q 1100 0 847 248 
Q 594 497 594 1153 
L 594 3053 
L 172 3053 
L 172 3500 
L 594 3500 
L 594 4494 
L 1172 4494 
z
" transform="scale(0.015625)"/>
      <path id="DejaVuSans-68" d="M 3513 2113 
L 3513 0 
L 2938 0 
L 2938 2094 
Q 2938 2591 2744 2837 
Q 2550 3084 2163 3084 
Q 1697 3084 1428 2787 
Q 1159 2491 1159 1978 
L 1159 0 
L 581 0 
L 581 4863 
L 1159 4863 
L 1159 2956 
Q 1366 3272 1645 3428 
Q 1925 3584 2291 3584 
Q 2894 3584 3203 3211 
Q 3513 2838 3513 2113 
z
" transform="scale(0.015625)"/>
      <path id="DejaVuSans-43" d="M 4122 4306 
L 4122 3641 
Q 3803 3938 3442 4084 
Q 3081 4231 2675 4231 
Q 1875 4231 1450 3742 
Q 1025 3253 1025 2328 
Q 1025 1406 1450 917 
Q 1875 428 2675 428 
Q 3081 428 3442 575 
Q 3803 722 4122 1019 
L 4122 359 
Q 3791 134 3420 21 
Q 3050 -91 2638 -91 
Q 1578 -91 968 557 
Q 359 1206 359 2328 
Q 359 3453 968 4101 
Q 1578 4750 2638 4750 
Q 3056 4750 3426 4639 
Q 3797 4528 4122 4306 
z
" transform="scale(0.015625)"/>
      <path id="DejaVuSans-75" d="M 544 1381 
L 544 3500 
L 1119 3500 
L 1119 1403 
Q 1119 906 1312 657 
Q 1506 409 1894 409 
Q 2359 409 2629 706 
Q 2900 1003 2900 1516 
L 2900 3500 
L 3475 3500 
L 3475 0 
L 2900 0 
L 2900 538 
Q 2691 219 2414 64 
Q 2138 -91 1772 -91 
Q 1169 -91 856 284 
Q 544 659 544 1381 
z
M 1991 3584 
L 1991 3584 
z
" transform="scale(0.015625)"/>
      <path id="DejaVuSans-61" d="M 2194 1759 
Q 1497 1759 1228 1600 
Q 959 1441 959 1056 
Q 959 750 1161 570 
Q 1363 391 1709 391 
Q 2188 391 2477 730 
Q 2766 1069 2766 1631 
L 2766 1759 
L 2194 1759 
z
M 3341 1997 
L 3341 0 
L 2766 0 
L 2766 531 
Q 2569 213 2275 61 
Q 1981 -91 1556 -91 
Q 1019 -91 701 211 
Q 384 513 384 1019 
Q 384 1609 779 1909 
Q 1175 2209 1959 2209 
L 2766 2209 
L 2766 2266 
Q 2766 2663 2505 2880 
Q 2244 3097 1772 3097 
Q 1472 3097 1187 3025 
Q 903 2953 641 2809 
L 641 3341 
Q 956 3463 1253 3523 
Q 1550 3584 1831 3584 
Q 2591 3584 2966 3190 
Q 3341 2797 3341 1997 
z
" transform="scale(0.015625)"/>
      <path id="DejaVuSans-66" d="M 2375 4863 
L 2375 4384 
L 1825 4384 
Q 1516 4384 1395 4259 
Q 1275 4134 1275 3809 
L 1275 3500 
L 2222 3500 
L 2222 3053 
L 1275 3053 
L 1275 0 
L 697 0 
L 697 3053 
L 147 3053 
L 147 3500 
L 697 3500 
L 697 3744 
Q 697 4328 969 4595 
Q 1241 4863 1831 4863 
L 2375 4863 
z
" transform="scale(0.015625)"/>
      <path id="DejaVuSans-63" d="M 3122 3366 
L 3122 2828 
Q 2878 2963 2633 3030 
Q 2388 3097 2138 3097 
Q 1578 3097 1268 2742 
Q 959 2388 959 1747 
Q 959 1106 1268 751 
Q 1578 397 2138 397 
Q 2388 397 2633 464 
Q 2878 531 3122 666 
L 3122 134 
Q 2881 22 2623 -34 
Q 2366 -91 2075 -91 
Q 1284 -91 818 406 
Q 353 903 353 1747 
Q 353 2603 823 3093 
Q 1294 3584 2113 3584 
Q 2378 3584 2631 3529 
Q 2884 3475 3122 3366 
z
" transform="scale(0.015625)"/>
      <path id="DejaVuSans-77" d="M 269 3500 
L 844 3500 
L 1563 769 
L 2278 3500 
L 2956 3500 
L 3675 769 
L 4391 3500 
L 4966 3500 
L 4050 0 
L 3372 0 
L 2619 2869 
L 1863 0 
L 1184 0 
L 269 3500 
z
" transform="scale(0.015625)"/>
      <path id="DejaVuSans-70" d="M 1159 525 
L 1159 -1331 
L 581 -1331 
L 581 3500 
L 1159 3500 
L 1159 2969 
Q 1341 3281 1617 3432 
Q 1894 3584 2278 3584 
Q 2916 3584 3314 3078 
Q 3713 2572 3713 1747 
Q 3713 922 3314 415 
Q 2916 -91 2278 -91 
Q 1894 -91 1617 61 
Q 1341 213 1159 525 
z
M 3116 1747 
Q 3116 2381 2855 2742 
Q 2594 3103 2138 3103 
Q 1681 3103 1420 2742 
Q 1159 2381 1159 1747 
Q 1159 1113 1420 752 
Q 1681 391 2138 391 
Q 2594 391 2855 752 
Q 3116 1113 3116 1747 
z
" transform="scale(0.015625)"/>
      <path id="DejaVuSans-7a" d="M 353 3500 
L 3084 3500 
L 3084 2975 
L 922 459 
L 3084 459 
L 3084 0 
L 275 0 
L 275 525 
L 2438 3041 
L 353 3041 
L 353 3500 
z
" transform="scale(0.015625)"/>
     </defs>
     <use xlink:href="#DejaVuSans-53"/>
     <use xlink:href="#DejaVuSans-6d" transform="translate(63.476562 0)"/>
     <use xlink:href="#DejaVuSans-6f" transform="translate(160.888672 0)"/>
     <use xlink:href="#DejaVuSans-6f" transform="translate(222.070312 0)"/>
     <use xlink:href="#DejaVuSans-74" transform="translate(283.251953 0)"/>
     <use xlink:href="#DejaVuSans-68" transform="translate(322.460938 0)"/>
     <use xlink:href="#DejaVuSans-20" transform="translate(385.839844 0)"/>
     <use xlink:href="#DejaVuSans-43" transform="translate(417.626953 0)"/>
     <use xlink:href="#DejaVuSans-6f" transform="translate(487.451172 0)"/>
     <use xlink:href="#DejaVuSans-6e" transform="translate(548.632812 0)"/>
     <use xlink:href="#DejaVuSans-74" transform="translate(612.011719 0)"/>
     <use xlink:href="#DejaVuSans-69" transform="translate(651.220703 0)"/>
     <use xlink:href="#DejaVuSans-6e" transform="translate(679.003906 0)"/>
     <use xlink:href="#DejaVuSans-75" transform="translate(742.382812 0)"/>
     <use xlink:href="#DejaVuSans-61" transform="translate(805.761719 0)"/>
     <use xlink:href="#DejaVuSans-74" transform="translate(867.041016 0)"/>
     <use xlink:href="#DejaVuSans-6f" transform="translate(906.25 0)"/>
     <use xlink:href="#DejaVuSans-6e" transform="translate(967.431641 0)"/>
     <use xlink:href="#DejaVuSans-20" transform="translate(1030.810547 0)"/>
     <use xlink:href="#DejaVuSans-6f" transform="translate(1062.597656 0)"/>
     <use xlink:href="#DejaVuSans-66" transform="translate(1123.779297 0)"/>
     <use xlink:href="#DejaVuSans-20" transform="translate(1158.984375 0)"/>
     <use xlink:href="#DejaVuSans-74" transform="translate(1190.771484 0)"/>
     <use xlink:href="#DejaVuSans-68" transform="translate(1229.980469 0)"/>
     <use xlink:href="#DejaVuSans-65" transform="translate(1293.359375 0)"/>
     <use xlink:href="#DejaVuSans-20" transform="translate(1354.882812 0)"/>
     <use xlink:href="#DejaVuSans-53" transform="translate(1386.669922 0)"/>
     <use xlink:href="#DejaVuSans-69" transform="translate(1450.146484 0)"/>
     <use xlink:href="#DejaVuSans-6e" transform="translate(1477.929688 0)"/>
     <use xlink:href="#DejaVuSans-65" transform="translate(1541.308594 0)"/>
     <use xlink:href="#DejaVuSans-20" transform="translate(1602.832031 0)"/>
     <use xlink:href="#DejaVuSans-66" transform="translate(1634.619141 0)"/>
     <use xlink:href="#DejaVuSans-75" transform="translate(1669.824219 0)"/>
     <use xlink:href="#DejaVuSans-6e" transform="translate(1733.203125 0)"/>
     <use xlink:href="#DejaVuSans-63" transform="translate(1796.582031 0)"/>
     <use xlink:href="#DejaVuSans-74" transform="translate(1851.5625 0)"/>
     <use xlink:href="#DejaVuSans-69" transform="translate(1890.771484 0)"/>
     <use xlink:href="#DejaVuSans-6f" transform="translate(1918.554688 0)"/>
     <use xlink:href="#DejaVuSans-6e" transform="translate(1979.736328 0)"/>
     <use xlink:href="#DejaVuSans-20" transform="translate(2043.115234 0)"/>
     <use xlink:href="#DejaVuSans-77" transform="translate(2074.902344 0)"/>
     <use xlink:href="#DejaVuSans-69" transform="translate(2156.689453 0)"/>
     <use xlink:href="#DejaVuSans-74" transform="translate(2184.472656 0)"/>
     <use xlink:href="#DejaVuSans-68" transform="translate(2223.681641 0)"/>
     <use xlink:href="#DejaVuSans-20" transform="translate(2287.060547 0)"/>
     <use xlink:href="#DejaVuSans-53" transform="translate(2318.847656 0)"/>
     <use xlink:href="#DejaVuSans-74" transform="translate(2382.324219 0)"/>
     <use xlink:href="#DejaVuSans-65" transform="translate(2421.533203 0)"/>
     <use xlink:href="#DejaVuSans-70" transform="translate(2483.056641 0)"/>
     <use xlink:href="#DejaVuSans-20" transform="translate(2546.533203 0)"/>
     <use xlink:href="#DejaVuSans-53" transform="translate(2578.320312 0)"/>
     <use xlink:href="#DejaVuSans-69" transform="translate(2641.796875 0)"/>
     <use xlink:href="#DejaVuSans-7a" transform="translate(2669.580078 0)"/>
     <use xlink:href="#DejaVuSans-65" transform="translate(2722.070312 0)"/>
     <use xlink:href="#DejaVuSans-20" transform="translate(2783.59375 0)"/>
     <use xlink:href="#DejaVuSans-30" transform="translate(2815.380859 0)"/>
     <use xlink:href="#DejaVuSans-2e" transform="translate(2879.003906 0)"/>
     <use xlink:href="#DejaVuSans-32" transform="translate(2910.791016 0)"/>
    </g>
   </g>
   <g id="legend_1">
    <g id="patch_7">
     <path d="M 312.576562 80.55625 
L 511.4 80.55625 
Q 513.4 80.55625 513.4 78.55625 
L 513.4 50.2 
Q 513.4 48.2 511.4 48.2 
L 312.576562 48.2 
Q 310.576562 48.2 310.576562 50.2 
L 310.576562 78.55625 
Q 310.576562 80.55625 312.576562 80.55625 
z
" style="fill: #ffffff; opacity: 0.8; stroke: #cccccc; stroke-linejoin: miter"/>
    </g>
    <g id="line2d_35">
     <path d="M 314.576562 56.298437 
L 324.576562 56.298437 
L 334.576562 56.298437 
" style="fill: none; stroke: #0000ff; stroke-width: 1.5; stroke-linecap: square"/>
    </g>
    <g id="text_20">
     <!-- Continuation of sampled function -->
     <g transform="translate(342.576562 59.798437) scale(0.1 -0.1)">
      <defs>
       <path id="DejaVuSans-6c" d="M 603 4863 
L 1178 4863 
L 1178 0 
L 603 0 
L 603 4863 
z
" transform="scale(0.015625)"/>
       <path id="DejaVuSans-64" d="M 2906 2969 
L 2906 4863 
L 3481 4863 
L 3481 0 
L 2906 0 
L 2906 525 
Q 2725 213 2448 61 
Q 2172 -91 1784 -91 
Q 1150 -91 751 415 
Q 353 922 353 1747 
Q 353 2572 751 3078 
Q 1150 3584 1784 3584 
Q 2172 3584 2448 3432 
Q 2725 3281 2906 2969 
z
M 947 1747 
Q 947 1113 1208 752 
Q 1469 391 1925 391 
Q 2381 391 2643 752 
Q 2906 1113 2906 1747 
Q 2906 2381 2643 2742 
Q 2381 3103 1925 3103 
Q 1469 3103 1208 2742 
Q 947 2381 947 1747 
z
" transform="scale(0.015625)"/>
      </defs>
      <use xlink:href="#DejaVuSans-43"/>
      <use xlink:href="#DejaVuSans-6f" transform="translate(69.824219 0)"/>
      <use xlink:href="#DejaVuSans-6e" transform="translate(131.005859 0)"/>
      <use xlink:href="#DejaVuSans-74" transform="translate(194.384766 0)"/>
      <use xlink:href="#DejaVuSans-69" transform="translate(233.59375 0)"/>
      <use xlink:href="#DejaVuSans-6e" transform="translate(261.376953 0)"/>
      <use xlink:href="#DejaVuSans-75" transform="translate(324.755859 0)"/>
      <use xlink:href="#DejaVuSans-61" transform="translate(388.134766 0)"/>
      <use xlink:href="#DejaVuSans-74" transform="translate(449.414062 0)"/>
      <use xlink:href="#DejaVuSans-69" transform="translate(488.623047 0)"/>
      <use xlink:href="#DejaVuSans-6f" transform="translate(516.40625 0)"/>
      <use xlink:href="#DejaVuSans-6e" transform="translate(577.587891 0)"/>
      <use xlink:href="#DejaVuSans-20" transform="translate(640.966797 0)"/>
      <use xlink:href="#DejaVuSans-6f" transform="translate(672.753906 0)"/>
      <use xlink:href="#DejaVuSans-66" transform="translate(733.935547 0)"/>
      <use xlink:href="#DejaVuSans-20" transform="translate(769.140625 0)"/>
      <use xlink:href="#DejaVuSans-73" transform="translate(800.927734 0)"/>
      <use xlink:href="#DejaVuSans-61" transform="translate(853.027344 0)"/>
      <use xlink:href="#DejaVuSans-6d" transform="translate(914.306641 0)"/>
      <use xlink:href="#DejaVuSans-70" transform="translate(1011.71875 0)"/>
      <use xlink:href="#DejaVuSans-6c" transform="translate(1075.195312 0)"/>
      <use xlink:href="#DejaVuSans-65" transform="translate(1102.978516 0)"/>
      <use xlink:href="#DejaVuSans-64" transform="translate(1164.501953 0)"/>
      <use xlink:href="#DejaVuSans-20" transform="translate(1227.978516 0)"/>
      <use xlink:href="#DejaVuSans-66" transform="translate(1259.765625 0)"/>
      <use xlink:href="#DejaVuSans-75" transform="translate(1294.970703 0)"/>
      <use xlink:href="#DejaVuSans-6e" transform="translate(1358.349609 0)"/>
      <use xlink:href="#DejaVuSans-63" transform="translate(1421.728516 0)"/>
      <use xlink:href="#DejaVuSans-74" transform="translate(1476.708984 0)"/>
      <use xlink:href="#DejaVuSans-69" transform="translate(1515.917969 0)"/>
      <use xlink:href="#DejaVuSans-6f" transform="translate(1543.701172 0)"/>
      <use xlink:href="#DejaVuSans-6e" transform="translate(1604.882812 0)"/>
     </g>
    </g>
    <g id="line2d_36">
     <g>
      <use xlink:href="#m163783341c" x="324.576562" y="70.976562" style="fill: #ff0000; stroke: #ff0000"/>
     </g>
    </g>
    <g id="text_21">
     <!-- Sampled at step size 0.2 -->
     <g transform="translate(342.576562 74.476562) scale(0.1 -0.1)">
      <use xlink:href="#DejaVuSans-53"/>
      <use xlink:href="#DejaVuSans-61" transform="translate(63.476562 0)"/>
      <use xlink:href="#DejaVuSans-6d" transform="translate(124.755859 0)"/>
      <use xlink:href="#DejaVuSans-70" transform="translate(222.167969 0)"/>
      <use xlink:href="#DejaVuSans-6c" transform="translate(285.644531 0)"/>
      <use xlink:href="#DejaVuSans-65" transform="translate(313.427734 0)"/>
      <use xlink:href="#DejaVuSans-64" transform="translate(374.951172 0)"/>
      <use xlink:href="#DejaVuSans-20" transform="translate(438.427734 0)"/>
      <use xlink:href="#DejaVuSans-61" transform="translate(470.214844 0)"/>
      <use xlink:href="#DejaVuSans-74" transform="translate(531.494141 0)"/>
      <use xlink:href="#DejaVuSans-20" transform="translate(570.703125 0)"/>
      <use xlink:href="#DejaVuSans-73" transform="translate(602.490234 0)"/>
      <use xlink:href="#DejaVuSans-74" transform="translate(654.589844 0)"/>
      <use xlink:href="#DejaVuSans-65" transform="translate(693.798828 0)"/>
      <use xlink:href="#DejaVuSans-70" transform="translate(755.322266 0)"/>
      <use xlink:href="#DejaVuSans-20" transform="translate(818.798828 0)"/>
      <use xlink:href="#DejaVuSans-73" transform="translate(850.585938 0)"/>
      <use xlink:href="#DejaVuSans-69" transform="translate(902.685547 0)"/>
      <use xlink:href="#DejaVuSans-7a" transform="translate(930.46875 0)"/>
      <use xlink:href="#DejaVuSans-65" transform="translate(982.958984 0)"/>
      <use xlink:href="#DejaVuSans-20" transform="translate(1044.482422 0)"/>
      <use xlink:href="#DejaVuSans-30" transform="translate(1076.269531 0)"/>
      <use xlink:href="#DejaVuSans-2e" transform="translate(1139.892578 0)"/>
      <use xlink:href="#DejaVuSans-32" transform="translate(1171.679688 0)"/>
     </g>
    </g>
   </g>
  </g>
 </g>
 <defs>
  <clipPath id="p1452850668">
   <rect x="72" y="43.2" width="446.4" height="277.2"/>
  </clipPath>
 </defs>
</svg>
