<?xml version="1.0" encoding="utf-8" standalone="no"?>
<!DOCTYPE svg PUBLIC "-//W3C//DTD SVG 1.1//EN"
  "http://www.w3.org/Graphics/SVG/1.1/DTD/svg11.dtd">
<svg xmlns:xlink="http://www.w3.org/1999/xlink" width="582.876875pt" height="441.03625pt" viewBox="0 0 582.876875 441.03625" xmlns="http://www.w3.org/2000/svg" version="1.1">
 <metadata>
  <rdf:RDF xmlns:dc="http://purl.org/dc/elements/1.1/" xmlns:cc="http://creativecommons.org/ns#" xmlns:rdf="http://www.w3.org/1999/02/22-rdf-syntax-ns#">
   <cc:Work>
    <dc:type rdf:resource="http://purl.org/dc/dcmitype/StillImage"/>
    <dc:date>2025-02-20T11:35:52.049473</dc:date>
    <dc:format>image/svg+xml</dc:format>
    <dc:creator>
     <cc:Agent>
      <dc:title>Matplotlib v3.10.0, https://matplotlib.org/</dc:title>
     </cc:Agent>
    </dc:creator>
   </cc:Work>
  </rdf:RDF>
 </metadata>
 <defs>
  <style type="text/css">*{stroke-linejoin: round; stroke-linecap: butt}</style>
 </defs>
 <g id="figure_1">
  <g id="patch_1">
   <path d="M 0 441.03625 
L 582.876875 441.03625 
L 582.876875 0 
L 0 0 
z
" style="fill: #ffffff"/>
  </g>
  <g id="axes_1">
   <g id="patch_2">
    <path d="M 42.620313 266.706667 
L 567.725312 266.706667 
L 567.725312 33.32 
L 42.620313 33.32 
z
" style="fill: #ffffff"/>
   </g>
   <g id="matplotlib.axis_1">
    <g id="xtick_1">
     <g id="line2d_1">
      <path d="M 42.620313 266.706667 
L 42.620313 33.32 
" clip-path="url(#pcda9958a4f)" style="fill: none; stroke: #b0b0b0; stroke-width: 0.8; stroke-linecap: square"/>
     </g>
     <g id="line2d_2">
      <defs>
       <path id="m4ce4ff2b63" d="M 0 0 
L 0 3.5 
" style="stroke: #000000; stroke-width: 0.8"/>
      </defs>
      <g>
       <use xlink:href="#m4ce4ff2b63" x="42.620313" y="266.706667" style="stroke: #000000; stroke-width: 0.8"/>
      </g>
     </g>
    </g>
    <g id="xtick_2">
     <g id="line2d_3">
      <path d="M 130.137812 266.706667 
L 130.137812 33.32 
" clip-path="url(#pcda9958a4f)" style="fill: none; stroke: #b0b0b0; stroke-width: 0.8; stroke-linecap: square"/>
     </g>
     <g id="line2d_4">
      <g>
       <use xlink:href="#m4ce4ff2b63" x="130.137812" y="266.706667" style="stroke: #000000; stroke-width: 0.8"/>
      </g>
     </g>
    </g>
    <g id="xtick_3">
     <g id="line2d_5">
      <path d="M 217.655313 266.706667 
L 217.655313 33.32 
" clip-path="url(#pcda9958a4f)" style="fill: none; stroke: #b0b0b0; stroke-width: 0.8; stroke-linecap: square"/>
     </g>
     <g id="line2d_6">
      <g>
       <use xlink:href="#m4ce4ff2b63" x="217.655313" y="266.706667" style="stroke: #000000; stroke-width: 0.8"/>
      </g>
     </g>
    </g>
    <g id="xtick_4">
     <g id="line2d_7">
      <path d="M 305.172813 266.706667 
L 305.172813 33.32 
" clip-path="url(#pcda9958a4f)" style="fill: none; stroke: #b0b0b0; stroke-width: 0.8; stroke-linecap: square"/>
     </g>
     <g id="line2d_8">
      <g>
       <use xlink:href="#m4ce4ff2b63" x="305.172813" y="266.706667" style="stroke: #000000; stroke-width: 0.8"/>
      </g>
     </g>
    </g>
    <g id="xtick_5">
     <g id="line2d_9">
      <path d="M 392.690313 266.706667 
L 392.690313 33.32 
" clip-path="url(#pcda9958a4f)" style="fill: none; stroke: #b0b0b0; stroke-width: 0.8; stroke-linecap: square"/>
     </g>
     <g id="line2d_10">
      <g>
       <use xlink:href="#m4ce4ff2b63" x="392.690313" y="266.706667" style="stroke: #000000; stroke-width: 0.8"/>
      </g>
     </g>
    </g>
    <g id="xtick_6">
     <g id="line2d_11">
      <path d="M 480.207813 266.706667 
L 480.207813 33.32 
" clip-path="url(#pcda9958a4f)" style="fill: none; stroke: #b0b0b0; stroke-width: 0.8; stroke-linecap: square"/>
     </g>
     <g id="line2d_12">
      <g>
       <use xlink:href="#m4ce4ff2b63" x="480.207813" y="266.706667" style="stroke: #000000; stroke-width: 0.8"/>
      </g>
     </g>
    </g>
    <g id="xtick_7">
     <g id="line2d_13">
      <path d="M 567.725312 266.706667 
L 567.725312 33.32 
" clip-path="url(#pcda9958a4f)" style="fill: none; stroke: #b0b0b0; stroke-width: 0.8; stroke-linecap: square"/>
     </g>
     <g id="line2d_14">
      <g>
       <use xlink:href="#m4ce4ff2b63" x="567.725312" y="266.706667" style="stroke: #000000; stroke-width: 0.8"/>
      </g>
     </g>
    </g>
   </g>
   <g id="matplotlib.axis_2">
    <g id="ytick_1">
     <g id="line2d_15">
      <path d="M 42.620313 260.854652 
L 567.725312 260.854652 
" clip-path="url(#pcda9958a4f)" style="fill: none; stroke: #b0b0b0; stroke-width: 0.8; stroke-linecap: square"/>
     </g>
     <g id="line2d_16">
      <defs>
       <path id="mb02f16854b" d="M 0 0 
L -3.5 0 
" style="stroke: #000000; stroke-width: 0.8"/>
      </defs>
      <g>
       <use xlink:href="#mb02f16854b" x="42.620313" y="260.854652" style="stroke: #000000; stroke-width: 0.8"/>
      </g>
     </g>
     <g id="text_1">
      <!-- −4 -->
      <g transform="translate(20.878125 264.65387) scale(0.1 -0.1)">
       <defs>
        <path id="DejaVuSans-2212" d="M 678 2272 
L 4684 2272 
L 4684 1741 
L 678 1741 
L 678 2272 
z
" transform="scale(0.015625)"/>
        <path id="DejaVuSans-34" d="M 2419 4116 
L 825 1625 
L 2419 1625 
L 2419 4116 
z
M 2253 4666 
L 3047 4666 
L 3047 1625 
L 3713 1625 
L 3713 1100 
L 3047 1100 
L 3047 0 
L 2419 0 
L 2419 1100 
L 313 1100 
L 313 1709 
L 2253 4666 
z
" transform="scale(0.015625)"/>
       </defs>
       <use xlink:href="#DejaVuSans-2212"/>
       <use xlink:href="#DejaVuSans-34" transform="translate(83.789062 0)"/>
      </g>
     </g>
    </g>
    <g id="ytick_2">
     <g id="line2d_17">
      <path d="M 42.620313 232.411739 
L 567.725312 232.411739 
" clip-path="url(#pcda9958a4f)" style="fill: none; stroke: #b0b0b0; stroke-width: 0.8; stroke-linecap: square"/>
     </g>
     <g id="line2d_18">
      <g>
       <use xlink:href="#mb02f16854b" x="42.620313" y="232.411739" style="stroke: #000000; stroke-width: 0.8"/>
      </g>
     </g>
     <g id="text_2">
      <!-- −3 -->
      <g transform="translate(20.878125 236.210958) scale(0.1 -0.1)">
       <defs>
        <path id="DejaVuSans-33" d="M 2597 2516 
Q 3050 2419 3304 2112 
Q 3559 1806 3559 1356 
Q 3559 666 3084 287 
Q 2609 -91 1734 -91 
Q 1441 -91 1130 -33 
Q 819 25 488 141 
L 488 750 
Q 750 597 1062 519 
Q 1375 441 1716 441 
Q 2309 441 2620 675 
Q 2931 909 2931 1356 
Q 2931 1769 2642 2001 
Q 2353 2234 1838 2234 
L 1294 2234 
L 1294 2753 
L 1863 2753 
Q 2328 2753 2575 2939 
Q 2822 3125 2822 3475 
Q 2822 3834 2567 4026 
Q 2313 4219 1838 4219 
Q 1578 4219 1281 4162 
Q 984 4106 628 3988 
L 628 4550 
Q 988 4650 1302 4700 
Q 1616 4750 1894 4750 
Q 2613 4750 3031 4423 
Q 3450 4097 3450 3541 
Q 3450 3153 3228 2886 
Q 3006 2619 2597 2516 
z
" transform="scale(0.015625)"/>
       </defs>
       <use xlink:href="#DejaVuSans-2212"/>
       <use xlink:href="#DejaVuSans-33" transform="translate(83.789062 0)"/>
      </g>
     </g>
    </g>
    <g id="ytick_3">
     <g id="line2d_19">
      <path d="M 42.620313 203.968827 
L 567.725312 203.968827 
" clip-path="url(#pcda9958a4f)" style="fill: none; stroke: #b0b0b0; stroke-width: 0.8; stroke-linecap: square"/>
     </g>
     <g id="line2d_20">
      <g>
       <use xlink:href="#mb02f16854b" x="42.620313" y="203.968827" style="stroke: #000000; stroke-width: 0.8"/>
      </g>
     </g>
     <g id="text_3">
      <!-- −2 -->
      <g transform="translate(20.878125 207.768046) scale(0.1 -0.1)">
       <defs>
        <path id="DejaVuSans-32" d="M 1228 531 
L 3431 531 
L 3431 0 
L 469 0 
L 469 531 
Q 828 903 1448 1529 
Q 2069 2156 2228 2338 
Q 2531 2678 2651 2914 
Q 2772 3150 2772 3378 
Q 2772 3750 2511 3984 
Q 2250 4219 1831 4219 
Q 1534 4219 1204 4116 
Q 875 4013 500 3803 
L 500 4441 
Q 881 4594 1212 4672 
Q 1544 4750 1819 4750 
Q 2544 4750 2975 4387 
Q 3406 4025 3406 3419 
Q 3406 3131 3298 2873 
Q 3191 2616 2906 2266 
Q 2828 2175 2409 1742 
Q 1991 1309 1228 531 
z
" transform="scale(0.015625)"/>
       </defs>
       <use xlink:href="#DejaVuSans-2212"/>
       <use xlink:href="#DejaVuSans-32" transform="translate(83.789062 0)"/>
      </g>
     </g>
    </g>
    <g id="ytick_4">
     <g id="line2d_21">
      <path d="M 42.620313 175.525915 
L 567.725312 175.525915 
" clip-path="url(#pcda9958a4f)" style="fill: none; stroke: #b0b0b0; stroke-width: 0.8; stroke-linecap: square"/>
     </g>
     <g id="line2d_22">
      <g>
       <use xlink:href="#mb02f16854b" x="42.620313" y="175.525915" style="stroke: #000000; stroke-width: 0.8"/>
      </g>
     </g>
     <g id="text_4">
      <!-- −1 -->
      <g transform="translate(20.878125 179.325134) scale(0.1 -0.1)">
       <defs>
        <path id="DejaVuSans-31" d="M 794 531 
L 1825 531 
L 1825 4091 
L 703 3866 
L 703 4441 
L 1819 4666 
L 2450 4666 
L 2450 531 
L 3481 531 
L 3481 0 
L 794 0 
L 794 531 
z
" transform="scale(0.015625)"/>
       </defs>
       <use xlink:href="#DejaVuSans-2212"/>
       <use xlink:href="#DejaVuSans-31" transform="translate(83.789062 0)"/>
      </g>
     </g>
    </g>
    <g id="ytick_5">
     <g id="line2d_23">
      <path d="M 42.620313 147.083003 
L 567.725312 147.083003 
" clip-path="url(#pcda9958a4f)" style="fill: none; stroke: #b0b0b0; stroke-width: 0.8; stroke-linecap: square"/>
     </g>
     <g id="line2d_24">
      <g>
       <use xlink:href="#mb02f16854b" x="42.620313" y="147.083003" style="stroke: #000000; stroke-width: 0.8"/>
      </g>
     </g>
     <g id="text_5">
      <!-- 0 -->
      <g transform="translate(29.257813 150.882221) scale(0.1 -0.1)">
       <defs>
        <path id="DejaVuSans-30" d="M 2034 4250 
Q 1547 4250 1301 3770 
Q 1056 3291 1056 2328 
Q 1056 1369 1301 889 
Q 1547 409 2034 409 
Q 2525 409 2770 889 
Q 3016 1369 3016 2328 
Q 3016 3291 2770 3770 
Q 2525 4250 2034 4250 
z
M 2034 4750 
Q 2819 4750 3233 4129 
Q 3647 3509 3647 2328 
Q 3647 1150 3233 529 
Q 2819 -91 2034 -91 
Q 1250 -91 836 529 
Q 422 1150 422 2328 
Q 422 3509 836 4129 
Q 1250 4750 2034 4750 
z
" transform="scale(0.015625)"/>
       </defs>
       <use xlink:href="#DejaVuSans-30"/>
      </g>
     </g>
    </g>
    <g id="ytick_6">
     <g id="line2d_25">
      <path d="M 42.620313 118.64009 
L 567.725312 118.64009 
" clip-path="url(#pcda9958a4f)" style="fill: none; stroke: #b0b0b0; stroke-width: 0.8; stroke-linecap: square"/>
     </g>
     <g id="line2d_26">
      <g>
       <use xlink:href="#mb02f16854b" x="42.620313" y="118.64009" style="stroke: #000000; stroke-width: 0.8"/>
      </g>
     </g>
     <g id="text_6">
      <!-- 1 -->
      <g transform="translate(29.257813 122.439309) scale(0.1 -0.1)">
       <use xlink:href="#DejaVuSans-31"/>
      </g>
     </g>
    </g>
    <g id="ytick_7">
     <g id="line2d_27">
      <path d="M 42.620313 90.197178 
L 567.725312 90.197178 
" clip-path="url(#pcda9958a4f)" style="fill: none; stroke: #b0b0b0; stroke-width: 0.8; stroke-linecap: square"/>
     </g>
     <g id="line2d_28">
      <g>
       <use xlink:href="#mb02f16854b" x="42.620313" y="90.197178" style="stroke: #000000; stroke-width: 0.8"/>
      </g>
     </g>
     <g id="text_7">
      <!-- 2 -->
      <g transform="translate(29.257813 93.996397) scale(0.1 -0.1)">
       <use xlink:href="#DejaVuSans-32"/>
      </g>
     </g>
    </g>
    <g id="ytick_8">
     <g id="line2d_29">
      <path d="M 42.620313 61.754266 
L 567.725312 61.754266 
" clip-path="url(#pcda9958a4f)" style="fill: none; stroke: #b0b0b0; stroke-width: 0.8; stroke-linecap: square"/>
     </g>
     <g id="line2d_30">
      <g>
       <use xlink:href="#mb02f16854b" x="42.620313" y="61.754266" style="stroke: #000000; stroke-width: 0.8"/>
      </g>
     </g>
     <g id="text_8">
      <!-- 3 -->
      <g transform="translate(29.257813 65.553485) scale(0.1 -0.1)">
       <use xlink:href="#DejaVuSans-33"/>
      </g>
     </g>
    </g>
    <g id="text_9">
     <!-- Signal -->
     <g transform="translate(14.798438 165.372708) rotate(-90) scale(0.1 -0.1)">
      <defs>
       <path id="DejaVuSans-53" d="M 3425 4513 
L 3425 3897 
Q 3066 4069 2747 4153 
Q 2428 4238 2131 4238 
Q 1616 4238 1336 4038 
Q 1056 3838 1056 3469 
Q 1056 3159 1242 3001 
Q 1428 2844 1947 2747 
L 2328 2669 
Q 3034 2534 3370 2195 
Q 3706 1856 3706 1288 
Q 3706 609 3251 259 
Q 2797 -91 1919 -91 
Q 1588 -91 1214 -16 
Q 841 59 441 206 
L 441 856 
Q 825 641 1194 531 
Q 1563 422 1919 422 
Q 2459 422 2753 634 
Q 3047 847 3047 1241 
Q 3047 1584 2836 1778 
Q 2625 1972 2144 2069 
L 1759 2144 
Q 1053 2284 737 2584 
Q 422 2884 422 3419 
Q 422 4038 858 4394 
Q 1294 4750 2059 4750 
Q 2388 4750 2728 4690 
Q 3069 4631 3425 4513 
z
" transform="scale(0.015625)"/>
       <path id="DejaVuSans-69" d="M 603 3500 
L 1178 3500 
L 1178 0 
L 603 0 
L 603 3500 
z
M 603 4863 
L 1178 4863 
L 1178 4134 
L 603 4134 
L 603 4863 
z
" transform="scale(0.015625)"/>
       <path id="DejaVuSans-67" d="M 2906 1791 
Q 2906 2416 2648 2759 
Q 2391 3103 1925 3103 
Q 1463 3103 1205 2759 
Q 947 2416 947 1791 
Q 947 1169 1205 825 
Q 1463 481 1925 481 
Q 2391 481 2648 825 
Q 2906 1169 2906 1791 
z
M 3481 434 
Q 3481 -459 3084 -895 
Q 2688 -1331 1869 -1331 
Q 1566 -1331 1297 -1286 
Q 1028 -1241 775 -1147 
L 775 -588 
Q 1028 -725 1275 -790 
Q 1522 -856 1778 -856 
Q 2344 -856 2625 -561 
Q 2906 -266 2906 331 
L 2906 616 
Q 2728 306 2450 153 
Q 2172 0 1784 0 
Q 1141 0 747 490 
Q 353 981 353 1791 
Q 353 2603 747 3093 
Q 1141 3584 1784 3584 
Q 2172 3584 2450 3431 
Q 2728 3278 2906 2969 
L 2906 3500 
L 3481 3500 
L 3481 434 
z
" transform="scale(0.015625)"/>
       <path id="DejaVuSans-6e" d="M 3513 2113 
L 3513 0 
L 2938 0 
L 2938 2094 
Q 2938 2591 2744 2837 
Q 2550 3084 2163 3084 
Q 1697 3084 1428 2787 
Q 1159 2491 1159 1978 
L 1159 0 
L 581 0 
L 581 3500 
L 1159 3500 
L 1159 2956 
Q 1366 3272 1645 3428 
Q 1925 3584 2291 3584 
Q 2894 3584 3203 3211 
Q 3513 2838 3513 2113 
z
" transform="scale(0.015625)"/>
       <path id="DejaVuSans-61" d="M 2194 1759 
Q 1497 1759 1228 1600 
Q 959 1441 959 1056 
Q 959 750 1161 570 
Q 1363 391 1709 391 
Q 2188 391 2477 730 
Q 2766 1069 2766 1631 
L 2766 1759 
L 2194 1759 
z
M 3341 1997 
L 3341 0 
L 2766 0 
L 2766 531 
Q 2569 213 2275 61 
Q 1981 -91 1556 -91 
Q 1019 -91 701 211 
Q 384 513 384 1019 
Q 384 1609 779 1909 
Q 1175 2209 1959 2209 
L 2766 2209 
L 2766 2266 
Q 2766 2663 2505 2880 
Q 2244 3097 1772 3097 
Q 1472 3097 1187 3025 
Q 903 2953 641 2809 
L 641 3341 
Q 956 3463 1253 3523 
Q 1550 3584 1831 3584 
Q 2591 3584 2966 3190 
Q 3341 2797 3341 1997 
z
" transform="scale(0.015625)"/>
       <path id="DejaVuSans-6c" d="M 603 4863 
L 1178 4863 
L 1178 0 
L 603 0 
L 603 4863 
z
" transform="scale(0.015625)"/>
      </defs>
      <use xlink:href="#DejaVuSans-53"/>
      <use xlink:href="#DejaVuSans-69" transform="translate(63.476562 0)"/>
      <use xlink:href="#DejaVuSans-67" transform="translate(91.259766 0)"/>
      <use xlink:href="#DejaVuSans-6e" transform="translate(154.736328 0)"/>
      <use xlink:href="#DejaVuSans-61" transform="translate(218.115234 0)"/>
      <use xlink:href="#DejaVuSans-6c" transform="translate(279.394531 0)"/>
     </g>
    </g>
   </g>
   <g id="line2d_31">
    <path d="M 42.620313 131.613951 
L 44.064712 126.513153 
L 45.246494 123.14629 
L 46.165658 121.153809 
L 46.953512 119.933961 
L 47.610057 119.28151 
L 48.135294 119.004065 
L 48.66053 118.945532 
L 49.185766 119.10468 
L 49.711003 119.477775 
L 50.367548 120.235354 
L 51.155403 121.547983 
L 52.074566 123.583775 
L 53.125039 126.474254 
L 54.569439 131.165598 
L 59.033947 146.258244 
L 60.215729 149.204367 
L 61.134892 150.920391 
L 61.922747 151.933045 
L 62.579292 152.430164 
L 63.104529 152.592563 
L 63.629765 152.542565 
L 64.155001 152.27984 
L 64.811547 151.655863 
L 65.468092 150.712859 
L 66.255946 149.182611 
L 67.17511 146.896589 
L 68.356892 143.288581 
L 69.932601 137.650346 
L 73.871873 123.154468 
L 75.053655 119.762687 
L 75.972818 117.702699 
L 76.760673 116.408901 
L 77.417218 115.694609 
L 77.942454 115.373945 
L 78.467691 115.282806 
L 78.992927 115.424664 
L 79.518163 115.800466 
L 80.174709 116.596539 
L 80.831254 117.746861 
L 81.619108 119.573887 
L 82.538272 122.274485 
L 83.720054 126.527367 
L 85.164454 132.636468 
L 88.44718 147.935787 
L 90.154198 155.212413 
L 91.467289 159.889844 
L 92.517762 162.867684 
L 93.436925 164.837965 
L 94.22478 166.025041 
L 94.881325 166.652745 
L 95.537871 166.953039 
L 96.063107 166.962421 
L 96.588343 166.773609 
L 97.244889 166.272782 
L 98.032743 165.313719 
L 98.951907 163.763242 
L 100.133688 161.231592 
L 101.840706 156.94828 
L 104.20427 151.1043 
L 105.386051 148.786978 
L 106.305215 147.462885 
L 107.093069 146.735194 
L 107.749615 146.450579 
L 108.274851 146.448287 
L 108.800087 146.654775 
L 109.325324 147.075255 
L 109.981869 147.905704 
L 110.769724 149.34828 
L 111.557578 151.265582 
L 112.476742 154.069069 
L 113.658523 158.475559 
L 115.102923 164.843246 
L 117.335177 175.88527 
L 119.961359 188.597338 
L 121.405759 194.475438 
L 122.456231 197.94534 
L 123.375395 200.316262 
L 124.163249 201.806709 
L 124.819795 202.647746 
L 125.47634 203.116277 
L 126.001577 203.222019 
L 126.526813 203.090938 
L 127.052049 202.727866 
L 127.708595 201.95909 
L 128.496449 200.600908 
L 129.415613 198.471823 
L 130.466085 195.427414 
L 131.910485 190.451686 
L 136.90023 172.394872 
L 138.082012 169.288139 
L 139.001175 167.446403 
L 139.78903 166.311818 
L 140.445575 165.69456 
L 141.10212 165.380545 
L 141.627357 165.346623 
L 142.152593 165.501945 
L 142.809138 165.95254 
L 143.465684 166.671645 
L 144.253538 167.85654 
L 145.304011 169.900422 
L 146.617102 172.998438 
L 150.556374 182.667433 
L 151.606847 184.47986 
L 152.394701 185.426454 
L 153.051246 185.898679 
L 153.576483 186.048976 
L 154.101719 185.984127 
L 154.626955 185.694563 
L 155.152192 185.17307 
L 155.808737 184.188024 
L 156.596592 182.513098 
L 157.384446 180.305902 
L 158.30361 177.082706 
L 159.354082 172.606966 
L 160.667173 165.986212 
L 162.374191 156.115472 
L 167.757863 124.001928 
L 169.070954 117.849688 
L 170.252736 113.342464 
L 171.303208 110.243857 
L 172.222372 108.260707 
L 173.010226 107.099437 
L 173.666772 106.499642 
L 174.323317 106.21758 
L 174.848553 106.206422 
L 175.505099 106.438643 
L 176.161644 106.915869 
L 176.949499 107.763172 
L 177.999971 109.249266 
L 179.838298 112.343001 
L 181.545316 115.058009 
L 182.595789 116.322537 
L 183.383643 116.954801 
L 184.040189 117.230794 
L 184.696734 117.250935 
L 185.353279 116.994598 
L 186.009825 116.446716 
L 186.66637 115.598074 
L 187.454225 114.178658 
L 188.373388 111.978813 
L 189.423861 108.787877 
L 190.605643 104.436064 
L 192.181352 97.669234 
L 197.433715 74.135226 
L 198.615496 70.239633 
L 199.53466 67.899449 
L 200.322514 66.439902 
L 200.97906 65.637674 
L 201.504296 65.278141 
L 202.029532 65.174996 
L 202.554769 65.33064 
L 203.080005 65.744928 
L 203.73655 66.622172 
L 204.393096 67.88841 
L 205.18095 69.897474 
L 206.100114 72.865351 
L 207.281895 77.541216 
L 208.726295 84.276759 
L 211.089859 96.575187 
L 213.584731 109.227308 
L 215.029131 115.522011 
L 216.210913 119.812375 
L 217.261385 122.873263 
L 218.180549 124.935862 
L 218.968403 126.243811 
L 219.756258 127.139885 
L 220.412803 127.589505 
L 221.069349 127.790566 
L 221.725894 127.768697 
L 222.513748 127.491149 
L 223.432912 126.897553 
L 224.877312 125.628732 
L 226.58433 124.154461 
L 227.503493 123.625629 
L 228.291348 123.433534 
L 228.947893 123.508302 
L 229.604439 123.83337 
L 230.260984 124.438925 
L 230.917529 125.350443 
L 231.705384 126.876297 
L 232.493238 128.895987 
L 233.412402 131.891807 
L 234.462874 136.153499 
L 235.644656 141.963385 
L 237.089056 150.352129 
L 238.927383 162.574061 
L 244.442364 200.505457 
L 245.886764 208.401443 
L 247.068546 213.686798 
L 248.119018 217.390134 
L 249.038182 219.826051 
L 249.826036 221.31272 
L 250.482582 222.136014 
L 251.139127 222.595609 
L 251.664364 222.714157 
L 252.1896 222.624453 
L 252.846145 222.241499 
L 253.502691 221.587745 
L 254.290545 220.496673 
L 255.341018 218.634826 
L 257.048036 215.040467 
L 259.28029 210.415198 
L 260.462072 208.500235 
L 261.381235 207.435508 
L 262.16909 206.87817 
L 262.825635 206.689347 
L 263.48218 206.764443 
L 264.138726 207.109745 
L 264.795271 207.725481 
L 265.583126 208.812672 
L 266.502289 210.532925 
L 267.552762 213.026423 
L 268.865853 216.764893 
L 271.360725 224.760784 
L 273.067743 229.895591 
L 274.249525 232.803251 
L 275.168688 234.516436 
L 275.956543 235.518327 
L 276.613088 235.982522 
L 277.138325 236.092215 
L 277.663561 235.957434 
L 278.188797 235.569657 
L 278.714033 234.922771 
L 279.370579 233.74451 
L 280.158433 231.787273 
L 281.077597 228.767701 
L 282.128069 224.392651 
L 283.309851 218.402619 
L 284.754251 209.803677 
L 286.723887 196.540166 
L 291.057087 166.851099 
L 292.632796 157.755484 
L 293.945886 151.390588 
L 295.127668 146.722354 
L 296.178141 143.439435 
L 297.097304 141.217314 
L 298.016468 139.560121 
L 298.804322 138.54295 
L 299.592177 137.845864 
L 300.380031 137.410455 
L 301.299195 137.145687 
L 302.874904 136.986113 
L 304.187994 136.770247 
L 305.107158 136.379247 
L 305.895012 135.792812 
L 306.682867 134.910614 
L 307.470721 133.680721 
L 308.258576 132.060867 
L 309.177739 129.636913 
L 310.228212 126.128142 
L 311.278685 121.825875 
L 312.460466 116.079658 
L 313.904866 107.908608 
L 315.874502 95.279203 
L 320.47032 65.136376 
L 321.91472 57.360142 
L 323.096502 52.139642 
L 324.146974 48.508909 
L 324.934829 46.460787 
L 325.722683 45.013022 
L 326.379228 44.269754 
L 326.904465 43.976273 
L 327.429701 43.945636 
L 327.954937 44.170763 
L 328.480174 44.6422 
L 329.136719 45.559815 
L 329.924574 47.105533 
L 330.843737 49.449747 
L 332.025519 53.158519 
L 333.601228 58.917431 
L 337.409191 73.126162 
L 338.722282 77.046747 
L 339.772754 79.546289 
L 340.691918 81.208528 
L 341.479772 82.225371 
L 342.267627 82.865464 
L 342.924172 83.119986 
L 343.580718 83.135496 
L 344.237263 82.931505 
L 345.025117 82.432152 
L 345.944281 81.564921 
L 347.257372 79.981222 
L 349.620935 77.07973 
L 350.540099 76.291147 
L 351.327953 75.905269 
L 351.984499 75.840569 
L 352.509735 75.983057 
L 353.034971 76.316335 
L 353.691517 77.023645 
L 354.348062 78.076681 
L 355.135916 79.823441 
L 355.923771 82.117996 
L 356.842934 85.500025 
L 357.893407 90.285459 
L 359.075189 96.783557 
L 360.519589 106.145958 
L 362.226607 118.77708 
L 365.771952 147.269145 
L 368.004206 164.089906 
L 369.579915 174.335871 
L 370.893006 181.494616 
L 372.074787 186.738063 
L 373.12526 190.413916 
L 374.044424 192.88355 
L 374.963587 194.694564 
L 375.751442 195.766605 
L 376.539296 196.445743 
L 377.195841 196.752522 
L 377.983696 196.865001 
L 378.902859 196.731752 
L 380.21595 196.269937 
L 381.791659 195.737628 
L 382.710823 195.652796 
L 383.498677 195.81068 
L 384.155222 196.14796 
L 384.811768 196.701802 
L 385.599622 197.683662 
L 386.387477 199.038291 
L 387.30664 201.111565 
L 388.357113 204.135412 
L 389.538895 208.333591 
L 390.851985 213.866105 
L 392.690313 222.726055 
L 396.892203 243.439185 
L 398.205294 248.629935 
L 399.255766 251.936783 
L 400.17493 254.095827 
L 400.831475 255.175682 
L 401.488021 255.847658 
L 402.013257 256.082242 
L 402.538493 256.042821 
L 403.06373 255.727774 
L 403.588966 255.138038 
L 404.245511 254.02014 
L 405.033366 252.137309 
L 405.952529 249.236536 
L 407.003002 245.081606 
L 408.316093 238.830946 
L 410.023111 229.452982 
L 415.144165 200.462948 
L 416.588565 193.958763 
L 417.770346 189.588659 
L 418.820819 186.479106 
L 419.739982 184.358198 
L 420.659146 182.771794 
L 421.447 181.802274 
L 422.234855 181.149578 
L 423.022709 180.762393 
L 423.941873 180.566313 
L 425.254964 180.559926 
L 426.830673 180.545704 
L 427.749836 180.312233 
L 428.537691 179.87193 
L 429.325545 179.14025 
L 430.1134 178.058266 
L 430.901254 176.575535 
L 431.820418 174.285684 
L 432.739581 171.350362 
L 433.790054 167.176888 
L 434.971835 161.444284 
L 436.284926 153.866345 
L 437.860635 143.34368 
L 440.092889 126.654025 
L 443.900853 97.962651 
L 445.476562 87.775906 
L 446.789652 80.633892 
L 447.971434 75.445547 
L 448.890598 72.287089 
L 449.809761 69.916438 
L 450.597616 68.506987 
L 451.254161 67.758456 
L 451.779397 67.426733 
L 452.304634 67.320447 
L 452.82987 67.426265 
L 453.486415 67.833332 
L 454.142961 68.514037 
L 454.930815 69.639121 
L 455.981288 71.545776 
L 457.688306 75.203977 
L 459.789251 79.644504 
L 460.971033 81.646291 
L 461.890196 82.793898 
L 462.678051 83.433707 
L 463.334596 83.69983 
L 463.991141 83.710287 
L 464.647687 83.459232 
L 465.304232 82.946876 
L 466.092087 81.996379 
L 467.01125 80.45384 
L 468.061723 78.188477 
L 469.374814 74.77374 
L 474.233249 61.4899 
L 475.152413 59.825909 
L 475.940267 58.829316 
L 476.596813 58.346319 
L 477.122049 58.208195 
L 477.647285 58.304196 
L 478.172522 58.64439 
L 478.697758 59.236516 
L 479.354303 60.338811 
L 480.142158 62.198335 
L 480.930012 64.639757 
L 481.849176 68.201266 
L 482.899649 73.152447 
L 484.212739 80.504923 
L 485.788448 90.663975 
L 488.545939 110.222827 
L 491.040811 127.389996 
L 492.61652 136.857059 
L 493.929611 143.538102 
L 495.111393 148.468749 
L 496.161865 151.947509 
L 497.081029 154.298668 
L 498.000192 156.034542 
L 498.788047 157.071921 
L 499.575901 157.740118 
L 500.363756 158.093187 
L 501.15161 158.193081 
L 502.070774 158.080836 
L 505.48481 157.41173 
L 506.272664 157.621579 
L 506.92921 158.004157 
L 507.585755 158.60883 
L 508.37361 159.664543 
L 509.161464 161.114072 
L 510.080628 163.335228 
L 510.999791 166.143839 
L 512.050264 170.065537 
L 513.232045 175.328838 
L 514.676445 182.809467 
L 516.646081 194.28271 
L 520.454045 216.65325 
L 521.898445 223.727467 
L 523.080226 228.452322 
L 523.99939 231.338578 
L 524.787244 233.210019 
L 525.44379 234.324052 
L 526.100335 235.023761 
L 526.625571 235.283502 
L 527.150808 235.27825 
L 527.676044 235.012266 
L 528.20128 234.492291 
L 528.857826 233.499301 
L 529.64568 231.835528 
L 530.564844 229.306808 
L 531.746625 225.273584 
L 533.191025 219.471904 
L 538.312079 198.065372 
L 539.493861 194.340091 
L 540.544334 191.716854 
L 541.463497 190.001063 
L 542.251352 188.972783 
L 542.907897 188.424575 
L 543.564442 188.146984 
L 544.220988 188.124521 
L 544.877533 188.336191 
L 545.665388 188.862179 
L 546.584551 189.781986 
L 547.897642 191.476422 
L 550.523823 194.970973 
L 551.442987 195.821583 
L 552.230841 196.253737 
L 552.887387 196.355283 
L 553.412623 196.243253 
L 553.937859 195.943162 
L 554.594405 195.284061 
L 555.25095 194.290432 
L 556.038805 192.635733 
L 556.826659 190.463168 
L 557.745823 187.271793 
L 558.796295 182.783211 
L 559.978077 176.740903 
L 561.422477 168.142377 
L 563.392113 154.921068 
L 567.725312 125.360045 
L 567.725312 125.360045 
" clip-path="url(#pcda9958a4f)" style="fill: none; stroke: #0000ff; stroke-width: 1.5; stroke-linecap: square"/>
   </g>
   <g id="line2d_32">
    <defs>
     <path id="m4db0c2770a" d="M 0 3 
C 0.795609 3 1.55874 2.683901 2.12132 2.12132 
C 2.683901 1.55874 3 0.795609 3 0 
C 3 -0.795609 2.683901 -1.55874 2.12132 -2.12132 
C 1.55874 -2.683901 0.795609 -3 0 -3 
C -0.795609 -3 -1.55874 -2.683901 -2.12132 -2.12132 
C -2.683901 -1.55874 -3 -0.795609 -3 0 
C -3 0.795609 -2.683901 1.55874 -2.12132 2.12132 
C -1.55874 2.683901 -0.795609 3 0 3 
z
" style="stroke: #ff0000"/>
    </defs>
    <g clip-path="url(#pcda9958a4f)">
     <use xlink:href="#m4db0c2770a" x="217.655313" y="123.828346" style="fill: #ff0000; stroke: #ff0000"/>
     <use xlink:href="#m4db0c2770a" x="226.407062" y="124.285357" style="fill: #ff0000; stroke: #ff0000"/>
     <use xlink:href="#m4db0c2770a" x="235.158813" y="139.450588" style="fill: #ff0000; stroke: #ff0000"/>
     <use xlink:href="#m4db0c2770a" x="243.910563" y="197.258219" style="fill: #ff0000; stroke: #ff0000"/>
     <use xlink:href="#m4db0c2770a" x="252.662313" y="222.377479" style="fill: #ff0000; stroke: #ff0000"/>
     <use xlink:href="#m4db0c2770a" x="261.414062" y="207.405433" style="fill: #ff0000; stroke: #ff0000"/>
     <use xlink:href="#m4db0c2770a" x="270.165813" y="220.884488" style="fill: #ff0000; stroke: #ff0000"/>
     <use xlink:href="#m4db0c2770a" x="278.917563" y="234.601588" style="fill: #ff0000; stroke: #ff0000"/>
     <use xlink:href="#m4db0c2770a" x="287.669312" y="189.865027" style="fill: #ff0000; stroke: #ff0000"/>
     <use xlink:href="#m4db0c2770a" x="296.421063" y="142.794542" style="fill: #ff0000; stroke: #ff0000"/>
     <use xlink:href="#m4db0c2770a" x="305.172813" y="136.340254" style="fill: #ff0000; stroke: #ff0000"/>
     <use xlink:href="#m4db0c2770a" x="313.924562" y="107.789653" style="fill: #ff0000; stroke: #ff0000"/>
     <use xlink:href="#m4db0c2770a" x="322.676312" y="53.864877" style="fill: #ff0000; stroke: #ff0000"/>
     <use xlink:href="#m4db0c2770a" x="331.428063" y="51.198488" style="fill: #ff0000; stroke: #ff0000"/>
     <use xlink:href="#m4db0c2770a" x="340.179813" y="80.344866" style="fill: #ff0000; stroke: #ff0000"/>
     <use xlink:href="#m4db0c2770a" x="348.931563" y="77.844155" style="fill: #ff0000; stroke: #ff0000"/>
     <use xlink:href="#m4db0c2770a" x="357.683312" y="89.251457" style="fill: #ff0000; stroke: #ff0000"/>
     <use xlink:href="#m4db0c2770a" x="366.435063" y="152.474449" style="fill: #ff0000; stroke: #ff0000"/>
     <use xlink:href="#m4db0c2770a" x="375.186812" y="195.041179" style="fill: #ff0000; stroke: #ff0000"/>
     <use xlink:href="#m4db0c2770a" x="383.938562" y="196.013967" style="fill: #ff0000; stroke: #ff0000"/>
     <use xlink:href="#m4db0c2770a" x="392.690313" y="222.726055" style="fill: #ff0000; stroke: #ff0000"/>
    </g>
   </g>
   <g id="patch_3">
    <path d="M 42.620313 266.706667 
L 42.620313 33.32 
" style="fill: none; stroke: #000000; stroke-width: 0.8; stroke-linejoin: miter; stroke-linecap: square"/>
   </g>
   <g id="patch_4">
    <path d="M 567.725312 266.706667 
L 567.725312 33.32 
" style="fill: none; stroke: #000000; stroke-width: 0.8; stroke-linejoin: miter; stroke-linecap: square"/>
   </g>
   <g id="patch_5">
    <path d="M 42.620313 266.706667 
L 567.725312 266.706667 
" style="fill: none; stroke: #000000; stroke-width: 0.8; stroke-linejoin: miter; stroke-linecap: square"/>
   </g>
   <g id="patch_6">
    <path d="M 42.620313 33.32 
L 567.725312 33.32 
" style="fill: none; stroke: #000000; stroke-width: 0.8; stroke-linejoin: miter; stroke-linecap: square"/>
   </g>
   <g id="legend_1">
    <g id="patch_7">
     <path d="M 49.620313 261.706667 
L 248.44375 261.706667 
Q 250.44375 261.706667 250.44375 259.706667 
L 250.44375 231.350417 
Q 250.44375 229.350417 248.44375 229.350417 
L 49.620313 229.350417 
Q 47.620313 229.350417 47.620313 231.350417 
L 47.620313 259.706667 
Q 47.620313 261.706667 49.620313 261.706667 
z
" style="fill: #ffffff; opacity: 0.8; stroke: #cccccc; stroke-linejoin: miter"/>
    </g>
    <g id="line2d_33">
     <path d="M 51.620313 237.448854 
L 61.620313 237.448854 
L 71.620313 237.448854 
" style="fill: none; stroke: #0000ff; stroke-width: 1.5; stroke-linecap: square"/>
    </g>
    <g id="text_10">
     <!-- Continuation of sampled function -->
     <g transform="translate(79.620313 240.948854) scale(0.1 -0.1)">
      <defs>
       <path id="DejaVuSans-43" d="M 4122 4306 
L 4122 3641 
Q 3803 3938 3442 4084 
Q 3081 4231 2675 4231 
Q 1875 4231 1450 3742 
Q 1025 3253 1025 2328 
Q 1025 1406 1450 917 
Q 1875 428 2675 428 
Q 3081 428 3442 575 
Q 3803 722 4122 1019 
L 4122 359 
Q 3791 134 3420 21 
Q 3050 -91 2638 -91 
Q 1578 -91 968 557 
Q 359 1206 359 2328 
Q 359 3453 968 4101 
Q 1578 4750 2638 4750 
Q 3056 4750 3426 4639 
Q 3797 4528 4122 4306 
z
" transform="scale(0.015625)"/>
       <path id="DejaVuSans-6f" d="M 1959 3097 
Q 1497 3097 1228 2736 
Q 959 2375 959 1747 
Q 959 1119 1226 758 
Q 1494 397 1959 397 
Q 2419 397 2687 759 
Q 2956 1122 2956 1747 
Q 2956 2369 2687 2733 
Q 2419 3097 1959 3097 
z
M 1959 3584 
Q 2709 3584 3137 3096 
Q 3566 2609 3566 1747 
Q 3566 888 3137 398 
Q 2709 -91 1959 -91 
Q 1206 -91 779 398 
Q 353 888 353 1747 
Q 353 2609 779 3096 
Q 1206 3584 1959 3584 
z
" transform="scale(0.015625)"/>
       <path id="DejaVuSans-74" d="M 1172 4494 
L 1172 3500 
L 2356 3500 
L 2356 3053 
L 1172 3053 
L 1172 1153 
Q 1172 725 1289 603 
Q 1406 481 1766 481 
L 2356 481 
L 2356 0 
L 1766 0 
Q 1100 0 847 248 
Q 594 497 594 1153 
L 594 3053 
L 172 3053 
L 172 3500 
L 594 3500 
L 594 4494 
L 1172 4494 
z
" transform="scale(0.015625)"/>
       <path id="DejaVuSans-75" d="M 544 1381 
L 544 3500 
L 1119 3500 
L 1119 1403 
Q 1119 906 1312 657 
Q 1506 409 1894 409 
Q 2359 409 2629 706 
Q 2900 1003 2900 1516 
L 2900 3500 
L 3475 3500 
L 3475 0 
L 2900 0 
L 2900 538 
Q 2691 219 2414 64 
Q 2138 -91 1772 -91 
Q 1169 -91 856 284 
Q 544 659 544 1381 
z
M 1991 3584 
L 1991 3584 
z
" transform="scale(0.015625)"/>
       <path id="DejaVuSans-20" transform="scale(0.015625)"/>
       <path id="DejaVuSans-66" d="M 2375 4863 
L 2375 4384 
L 1825 4384 
Q 1516 4384 1395 4259 
Q 1275 4134 1275 3809 
L 1275 3500 
L 2222 3500 
L 2222 3053 
L 1275 3053 
L 1275 0 
L 697 0 
L 697 3053 
L 147 3053 
L 147 3500 
L 697 3500 
L 697 3744 
Q 697 4328 969 4595 
Q 1241 4863 1831 4863 
L 2375 4863 
z
" transform="scale(0.015625)"/>
       <path id="DejaVuSans-73" d="M 2834 3397 
L 2834 2853 
Q 2591 2978 2328 3040 
Q 2066 3103 1784 3103 
Q 1356 3103 1142 2972 
Q 928 2841 928 2578 
Q 928 2378 1081 2264 
Q 1234 2150 1697 2047 
L 1894 2003 
Q 2506 1872 2764 1633 
Q 3022 1394 3022 966 
Q 3022 478 2636 193 
Q 2250 -91 1575 -91 
Q 1294 -91 989 -36 
Q 684 19 347 128 
L 347 722 
Q 666 556 975 473 
Q 1284 391 1588 391 
Q 1994 391 2212 530 
Q 2431 669 2431 922 
Q 2431 1156 2273 1281 
Q 2116 1406 1581 1522 
L 1381 1569 
Q 847 1681 609 1914 
Q 372 2147 372 2553 
Q 372 3047 722 3315 
Q 1072 3584 1716 3584 
Q 2034 3584 2315 3537 
Q 2597 3491 2834 3397 
z
" transform="scale(0.015625)"/>
       <path id="DejaVuSans-6d" d="M 3328 2828 
Q 3544 3216 3844 3400 
Q 4144 3584 4550 3584 
Q 5097 3584 5394 3201 
Q 5691 2819 5691 2113 
L 5691 0 
L 5113 0 
L 5113 2094 
Q 5113 2597 4934 2840 
Q 4756 3084 4391 3084 
Q 3944 3084 3684 2787 
Q 3425 2491 3425 1978 
L 3425 0 
L 2847 0 
L 2847 2094 
Q 2847 2600 2669 2842 
Q 2491 3084 2119 3084 
Q 1678 3084 1418 2786 
Q 1159 2488 1159 1978 
L 1159 0 
L 581 0 
L 581 3500 
L 1159 3500 
L 1159 2956 
Q 1356 3278 1631 3431 
Q 1906 3584 2284 3584 
Q 2666 3584 2933 3390 
Q 3200 3197 3328 2828 
z
" transform="scale(0.015625)"/>
       <path id="DejaVuSans-70" d="M 1159 525 
L 1159 -1331 
L 581 -1331 
L 581 3500 
L 1159 3500 
L 1159 2969 
Q 1341 3281 1617 3432 
Q 1894 3584 2278 3584 
Q 2916 3584 3314 3078 
Q 3713 2572 3713 1747 
Q 3713 922 3314 415 
Q 2916 -91 2278 -91 
Q 1894 -91 1617 61 
Q 1341 213 1159 525 
z
M 3116 1747 
Q 3116 2381 2855 2742 
Q 2594 3103 2138 3103 
Q 1681 3103 1420 2742 
Q 1159 2381 1159 1747 
Q 1159 1113 1420 752 
Q 1681 391 2138 391 
Q 2594 391 2855 752 
Q 3116 1113 3116 1747 
z
" transform="scale(0.015625)"/>
       <path id="DejaVuSans-65" d="M 3597 1894 
L 3597 1613 
L 953 1613 
Q 991 1019 1311 708 
Q 1631 397 2203 397 
Q 2534 397 2845 478 
Q 3156 559 3463 722 
L 3463 178 
Q 3153 47 2828 -22 
Q 2503 -91 2169 -91 
Q 1331 -91 842 396 
Q 353 884 353 1716 
Q 353 2575 817 3079 
Q 1281 3584 2069 3584 
Q 2775 3584 3186 3129 
Q 3597 2675 3597 1894 
z
M 3022 2063 
Q 3016 2534 2758 2815 
Q 2500 3097 2075 3097 
Q 1594 3097 1305 2825 
Q 1016 2553 972 2059 
L 3022 2063 
z
" transform="scale(0.015625)"/>
       <path id="DejaVuSans-64" d="M 2906 2969 
L 2906 4863 
L 3481 4863 
L 3481 0 
L 2906 0 
L 2906 525 
Q 2725 213 2448 61 
Q 2172 -91 1784 -91 
Q 1150 -91 751 415 
Q 353 922 353 1747 
Q 353 2572 751 3078 
Q 1150 3584 1784 3584 
Q 2172 3584 2448 3432 
Q 2725 3281 2906 2969 
z
M 947 1747 
Q 947 1113 1208 752 
Q 1469 391 1925 391 
Q 2381 391 2643 752 
Q 2906 1113 2906 1747 
Q 2906 2381 2643 2742 
Q 2381 3103 1925 3103 
Q 1469 3103 1208 2742 
Q 947 2381 947 1747 
z
" transform="scale(0.015625)"/>
       <path id="DejaVuSans-63" d="M 3122 3366 
L 3122 2828 
Q 2878 2963 2633 3030 
Q 2388 3097 2138 3097 
Q 1578 3097 1268 2742 
Q 959 2388 959 1747 
Q 959 1106 1268 751 
Q 1578 397 2138 397 
Q 2388 397 2633 464 
Q 2878 531 3122 666 
L 3122 134 
Q 2881 22 2623 -34 
Q 2366 -91 2075 -91 
Q 1284 -91 818 406 
Q 353 903 353 1747 
Q 353 2603 823 3093 
Q 1294 3584 2113 3584 
Q 2378 3584 2631 3529 
Q 2884 3475 3122 3366 
z
" transform="scale(0.015625)"/>
      </defs>
      <use xlink:href="#DejaVuSans-43"/>
      <use xlink:href="#DejaVuSans-6f" transform="translate(69.824219 0)"/>
      <use xlink:href="#DejaVuSans-6e" transform="translate(131.005859 0)"/>
      <use xlink:href="#DejaVuSans-74" transform="translate(194.384766 0)"/>
      <use xlink:href="#DejaVuSans-69" transform="translate(233.59375 0)"/>
      <use xlink:href="#DejaVuSans-6e" transform="translate(261.376953 0)"/>
      <use xlink:href="#DejaVuSans-75" transform="translate(324.755859 0)"/>
      <use xlink:href="#DejaVuSans-61" transform="translate(388.134766 0)"/>
      <use xlink:href="#DejaVuSans-74" transform="translate(449.414062 0)"/>
      <use xlink:href="#DejaVuSans-69" transform="translate(488.623047 0)"/>
      <use xlink:href="#DejaVuSans-6f" transform="translate(516.40625 0)"/>
      <use xlink:href="#DejaVuSans-6e" transform="translate(577.587891 0)"/>
      <use xlink:href="#DejaVuSans-20" transform="translate(640.966797 0)"/>
      <use xlink:href="#DejaVuSans-6f" transform="translate(672.753906 0)"/>
      <use xlink:href="#DejaVuSans-66" transform="translate(733.935547 0)"/>
      <use xlink:href="#DejaVuSans-20" transform="translate(769.140625 0)"/>
      <use xlink:href="#DejaVuSans-73" transform="translate(800.927734 0)"/>
      <use xlink:href="#DejaVuSans-61" transform="translate(853.027344 0)"/>
      <use xlink:href="#DejaVuSans-6d" transform="translate(914.306641 0)"/>
      <use xlink:href="#DejaVuSans-70" transform="translate(1011.71875 0)"/>
      <use xlink:href="#DejaVuSans-6c" transform="translate(1075.195312 0)"/>
      <use xlink:href="#DejaVuSans-65" transform="translate(1102.978516 0)"/>
      <use xlink:href="#DejaVuSans-64" transform="translate(1164.501953 0)"/>
      <use xlink:href="#DejaVuSans-20" transform="translate(1227.978516 0)"/>
      <use xlink:href="#DejaVuSans-66" transform="translate(1259.765625 0)"/>
      <use xlink:href="#DejaVuSans-75" transform="translate(1294.970703 0)"/>
      <use xlink:href="#DejaVuSans-6e" transform="translate(1358.349609 0)"/>
      <use xlink:href="#DejaVuSans-63" transform="translate(1421.728516 0)"/>
      <use xlink:href="#DejaVuSans-74" transform="translate(1476.708984 0)"/>
      <use xlink:href="#DejaVuSans-69" transform="translate(1515.917969 0)"/>
      <use xlink:href="#DejaVuSans-6f" transform="translate(1543.701172 0)"/>
      <use xlink:href="#DejaVuSans-6e" transform="translate(1604.882812 0)"/>
     </g>
    </g>
    <g id="line2d_34">
     <g>
      <use xlink:href="#m4db0c2770a" x="61.620313" y="252.126979" style="fill: #ff0000; stroke: #ff0000"/>
     </g>
    </g>
    <g id="text_11">
     <!-- Sampled at step size 0.05 -->
     <g transform="translate(79.620313 255.626979) scale(0.1 -0.1)">
      <defs>
       <path id="DejaVuSans-7a" d="M 353 3500 
L 3084 3500 
L 3084 2975 
L 922 459 
L 3084 459 
L 3084 0 
L 275 0 
L 275 525 
L 2438 3041 
L 353 3041 
L 353 3500 
z
" transform="scale(0.015625)"/>
       <path id="DejaVuSans-2e" d="M 684 794 
L 1344 794 
L 1344 0 
L 684 0 
L 684 794 
z
" transform="scale(0.015625)"/>
       <path id="DejaVuSans-35" d="M 691 4666 
L 3169 4666 
L 3169 4134 
L 1269 4134 
L 1269 2991 
Q 1406 3038 1543 3061 
Q 1681 3084 1819 3084 
Q 2600 3084 3056 2656 
Q 3513 2228 3513 1497 
Q 3513 744 3044 326 
Q 2575 -91 1722 -91 
Q 1428 -91 1123 -41 
Q 819 9 494 109 
L 494 744 
Q 775 591 1075 516 
Q 1375 441 1709 441 
Q 2250 441 2565 725 
Q 2881 1009 2881 1497 
Q 2881 1984 2565 2268 
Q 2250 2553 1709 2553 
Q 1456 2553 1204 2497 
Q 953 2441 691 2322 
L 691 4666 
z
" transform="scale(0.015625)"/>
      </defs>
      <use xlink:href="#DejaVuSans-53"/>
      <use xlink:href="#DejaVuSans-61" transform="translate(63.476562 0)"/>
      <use xlink:href="#DejaVuSans-6d" transform="translate(124.755859 0)"/>
      <use xlink:href="#DejaVuSans-70" transform="translate(222.167969 0)"/>
      <use xlink:href="#DejaVuSans-6c" transform="translate(285.644531 0)"/>
      <use xlink:href="#DejaVuSans-65" transform="translate(313.427734 0)"/>
      <use xlink:href="#DejaVuSans-64" transform="translate(374.951172 0)"/>
      <use xlink:href="#DejaVuSans-20" transform="translate(438.427734 0)"/>
      <use xlink:href="#DejaVuSans-61" transform="translate(470.214844 0)"/>
      <use xlink:href="#DejaVuSans-74" transform="translate(531.494141 0)"/>
      <use xlink:href="#DejaVuSans-20" transform="translate(570.703125 0)"/>
      <use xlink:href="#DejaVuSans-73" transform="translate(602.490234 0)"/>
      <use xlink:href="#DejaVuSans-74" transform="translate(654.589844 0)"/>
      <use xlink:href="#DejaVuSans-65" transform="translate(693.798828 0)"/>
      <use xlink:href="#DejaVuSans-70" transform="translate(755.322266 0)"/>
      <use xlink:href="#DejaVuSans-20" transform="translate(818.798828 0)"/>
      <use xlink:href="#DejaVuSans-73" transform="translate(850.585938 0)"/>
      <use xlink:href="#DejaVuSans-69" transform="translate(902.685547 0)"/>
      <use xlink:href="#DejaVuSans-7a" transform="translate(930.46875 0)"/>
      <use xlink:href="#DejaVuSans-65" transform="translate(982.958984 0)"/>
      <use xlink:href="#DejaVuSans-20" transform="translate(1044.482422 0)"/>
      <use xlink:href="#DejaVuSans-30" transform="translate(1076.269531 0)"/>
      <use xlink:href="#DejaVuSans-2e" transform="translate(1139.892578 0)"/>
      <use xlink:href="#DejaVuSans-30" transform="translate(1171.679688 0)"/>
      <use xlink:href="#DejaVuSans-35" transform="translate(1235.302734 0)"/>
     </g>
    </g>
   </g>
  </g>
  <g id="axes_2">
   <g id="patch_8">
    <path d="M 42.620313 403.48 
L 567.725312 403.48 
L 567.725312 286.786667 
L 42.620313 286.786667 
z
" style="fill: #ffffff"/>
   </g>
   <g id="matplotlib.axis_3">
    <g id="xtick_8">
     <g id="line2d_35">
      <path d="M 42.620313 403.48 
L 42.620313 286.786667 
" clip-path="url(#p6d99fdf06b)" style="fill: none; stroke: #b0b0b0; stroke-width: 0.8; stroke-linecap: square"/>
     </g>
     <g id="line2d_36">
      <g>
       <use xlink:href="#m4ce4ff2b63" x="42.620313" y="403.48" style="stroke: #000000; stroke-width: 0.8"/>
      </g>
     </g>
     <g id="text_12">
      <!-- −1.0 -->
      <g transform="translate(30.478906 418.078438) scale(0.1 -0.1)">
       <use xlink:href="#DejaVuSans-2212"/>
       <use xlink:href="#DejaVuSans-31" transform="translate(83.789062 0)"/>
       <use xlink:href="#DejaVuSans-2e" transform="translate(147.412109 0)"/>
       <use xlink:href="#DejaVuSans-30" transform="translate(179.199219 0)"/>
      </g>
     </g>
    </g>
    <g id="xtick_9">
     <g id="line2d_37">
      <path d="M 130.137812 403.48 
L 130.137812 286.786667 
" clip-path="url(#p6d99fdf06b)" style="fill: none; stroke: #b0b0b0; stroke-width: 0.8; stroke-linecap: square"/>
     </g>
     <g id="line2d_38">
      <g>
       <use xlink:href="#m4ce4ff2b63" x="130.137812" y="403.48" style="stroke: #000000; stroke-width: 0.8"/>
      </g>
     </g>
     <g id="text_13">
      <!-- −0.5 -->
      <g transform="translate(117.996406 418.078438) scale(0.1 -0.1)">
       <use xlink:href="#DejaVuSans-2212"/>
       <use xlink:href="#DejaVuSans-30" transform="translate(83.789062 0)"/>
       <use xlink:href="#DejaVuSans-2e" transform="translate(147.412109 0)"/>
       <use xlink:href="#DejaVuSans-35" transform="translate(179.199219 0)"/>
      </g>
     </g>
    </g>
    <g id="xtick_10">
     <g id="line2d_39">
      <path d="M 217.655313 403.48 
L 217.655313 286.786667 
" clip-path="url(#p6d99fdf06b)" style="fill: none; stroke: #b0b0b0; stroke-width: 0.8; stroke-linecap: square"/>
     </g>
     <g id="line2d_40">
      <g>
       <use xlink:href="#m4ce4ff2b63" x="217.655313" y="403.48" style="stroke: #000000; stroke-width: 0.8"/>
      </g>
     </g>
     <g id="text_14">
      <!-- 0.0 -->
      <g transform="translate(209.70375 418.078438) scale(0.1 -0.1)">
       <use xlink:href="#DejaVuSans-30"/>
       <use xlink:href="#DejaVuSans-2e" transform="translate(63.623047 0)"/>
       <use xlink:href="#DejaVuSans-30" transform="translate(95.410156 0)"/>
      </g>
     </g>
    </g>
    <g id="xtick_11">
     <g id="line2d_41">
      <path d="M 305.172813 403.48 
L 305.172813 286.786667 
" clip-path="url(#p6d99fdf06b)" style="fill: none; stroke: #b0b0b0; stroke-width: 0.8; stroke-linecap: square"/>
     </g>
     <g id="line2d_42">
      <g>
       <use xlink:href="#m4ce4ff2b63" x="305.172813" y="403.48" style="stroke: #000000; stroke-width: 0.8"/>
      </g>
     </g>
     <g id="text_15">
      <!-- 0.5 -->
      <g transform="translate(297.22125 418.078438) scale(0.1 -0.1)">
       <use xlink:href="#DejaVuSans-30"/>
       <use xlink:href="#DejaVuSans-2e" transform="translate(63.623047 0)"/>
       <use xlink:href="#DejaVuSans-35" transform="translate(95.410156 0)"/>
      </g>
     </g>
    </g>
    <g id="xtick_12">
     <g id="line2d_43">
      <path d="M 392.690313 403.48 
L 392.690313 286.786667 
" clip-path="url(#p6d99fdf06b)" style="fill: none; stroke: #b0b0b0; stroke-width: 0.8; stroke-linecap: square"/>
     </g>
     <g id="line2d_44">
      <g>
       <use xlink:href="#m4ce4ff2b63" x="392.690313" y="403.48" style="stroke: #000000; stroke-width: 0.8"/>
      </g>
     </g>
     <g id="text_16">
      <!-- 1.0 -->
      <g transform="translate(384.73875 418.078438) scale(0.1 -0.1)">
       <use xlink:href="#DejaVuSans-31"/>
       <use xlink:href="#DejaVuSans-2e" transform="translate(63.623047 0)"/>
       <use xlink:href="#DejaVuSans-30" transform="translate(95.410156 0)"/>
      </g>
     </g>
    </g>
    <g id="xtick_13">
     <g id="line2d_45">
      <path d="M 480.207813 403.48 
L 480.207813 286.786667 
" clip-path="url(#p6d99fdf06b)" style="fill: none; stroke: #b0b0b0; stroke-width: 0.8; stroke-linecap: square"/>
     </g>
     <g id="line2d_46">
      <g>
       <use xlink:href="#m4ce4ff2b63" x="480.207813" y="403.48" style="stroke: #000000; stroke-width: 0.8"/>
      </g>
     </g>
     <g id="text_17">
      <!-- 1.5 -->
      <g transform="translate(472.25625 418.078438) scale(0.1 -0.1)">
       <use xlink:href="#DejaVuSans-31"/>
       <use xlink:href="#DejaVuSans-2e" transform="translate(63.623047 0)"/>
       <use xlink:href="#DejaVuSans-35" transform="translate(95.410156 0)"/>
      </g>
     </g>
    </g>
    <g id="xtick_14">
     <g id="line2d_47">
      <path d="M 567.725312 403.48 
L 567.725312 286.786667 
" clip-path="url(#p6d99fdf06b)" style="fill: none; stroke: #b0b0b0; stroke-width: 0.8; stroke-linecap: square"/>
     </g>
     <g id="line2d_48">
      <g>
       <use xlink:href="#m4ce4ff2b63" x="567.725312" y="403.48" style="stroke: #000000; stroke-width: 0.8"/>
      </g>
     </g>
     <g id="text_18">
      <!-- 2.0 -->
      <g transform="translate(559.77375 418.078438) scale(0.1 -0.1)">
       <use xlink:href="#DejaVuSans-32"/>
       <use xlink:href="#DejaVuSans-2e" transform="translate(63.623047 0)"/>
       <use xlink:href="#DejaVuSans-30" transform="translate(95.410156 0)"/>
      </g>
     </g>
    </g>
    <g id="text_19">
     <!-- Time ($t$) -->
     <g transform="translate(285.322812 431.756563) scale(0.1 -0.1)">
      <defs>
       <path id="DejaVuSans-54" d="M -19 4666 
L 3928 4666 
L 3928 4134 
L 2272 4134 
L 2272 0 
L 1638 0 
L 1638 4134 
L -19 4134 
L -19 4666 
z
" transform="scale(0.015625)"/>
       <path id="DejaVuSans-28" d="M 1984 4856 
Q 1566 4138 1362 3434 
Q 1159 2731 1159 2009 
Q 1159 1288 1364 580 
Q 1569 -128 1984 -844 
L 1484 -844 
Q 1016 -109 783 600 
Q 550 1309 550 2009 
Q 550 2706 781 3412 
Q 1013 4119 1484 4856 
L 1984 4856 
z
" transform="scale(0.015625)"/>
       <path id="DejaVuSans-Oblique-74" d="M 2706 3500 
L 2619 3053 
L 1472 3053 
L 1100 1153 
Q 1081 1047 1072 975 
Q 1063 903 1063 863 
Q 1063 663 1183 572 
Q 1303 481 1569 481 
L 2150 481 
L 2053 0 
L 1503 0 
Q 991 0 739 200 
Q 488 400 488 806 
Q 488 878 497 964 
Q 506 1050 525 1153 
L 897 3053 
L 409 3053 
L 500 3500 
L 978 3500 
L 1172 4494 
L 1747 4494 
L 1556 3500 
L 2706 3500 
z
" transform="scale(0.015625)"/>
       <path id="DejaVuSans-29" d="M 513 4856 
L 1013 4856 
Q 1481 4119 1714 3412 
Q 1947 2706 1947 2009 
Q 1947 1309 1714 600 
Q 1481 -109 1013 -844 
L 513 -844 
Q 928 -128 1133 580 
Q 1338 1288 1338 2009 
Q 1338 2731 1133 3434 
Q 928 4138 513 4856 
z
" transform="scale(0.015625)"/>
      </defs>
      <use xlink:href="#DejaVuSans-54" transform="translate(0 0.015625)"/>
      <use xlink:href="#DejaVuSans-69" transform="translate(61.083984 0.015625)"/>
      <use xlink:href="#DejaVuSans-6d" transform="translate(88.867188 0.015625)"/>
      <use xlink:href="#DejaVuSans-65" transform="translate(186.279297 0.015625)"/>
      <use xlink:href="#DejaVuSans-20" transform="translate(247.802734 0.015625)"/>
      <use xlink:href="#DejaVuSans-28" transform="translate(279.589844 0.015625)"/>
      <use xlink:href="#DejaVuSans-Oblique-74" transform="translate(318.603516 0.015625)"/>
      <use xlink:href="#DejaVuSans-29" transform="translate(357.8125 0.015625)"/>
     </g>
    </g>
   </g>
   <g id="matplotlib.axis_4">
    <g id="ytick_9">
     <g id="line2d_49">
      <path d="M 42.620313 384.95169 
L 567.725312 384.95169 
" clip-path="url(#p6d99fdf06b)" style="fill: none; stroke: #b0b0b0; stroke-width: 0.8; stroke-linecap: square"/>
     </g>
     <g id="line2d_50">
      <g>
       <use xlink:href="#mb02f16854b" x="42.620313" y="384.95169" style="stroke: #000000; stroke-width: 0.8"/>
      </g>
     </g>
     <g id="text_20">
      <!-- −5 -->
      <g transform="translate(20.878125 388.750909) scale(0.1 -0.1)">
       <use xlink:href="#DejaVuSans-2212"/>
       <use xlink:href="#DejaVuSans-35" transform="translate(83.789062 0)"/>
      </g>
     </g>
    </g>
    <g id="ytick_10">
     <g id="line2d_51">
      <path d="M 42.620313 345.133333 
L 567.725312 345.133333 
" clip-path="url(#p6d99fdf06b)" style="fill: none; stroke: #b0b0b0; stroke-width: 0.8; stroke-linecap: square"/>
     </g>
     <g id="line2d_52">
      <g>
       <use xlink:href="#mb02f16854b" x="42.620313" y="345.133333" style="stroke: #000000; stroke-width: 0.8"/>
      </g>
     </g>
     <g id="text_21">
      <!-- 0 -->
      <g transform="translate(29.257813 348.932552) scale(0.1 -0.1)">
       <use xlink:href="#DejaVuSans-30"/>
      </g>
     </g>
    </g>
    <g id="ytick_11">
     <g id="line2d_53">
      <path d="M 42.620313 305.314976 
L 567.725312 305.314976 
" clip-path="url(#p6d99fdf06b)" style="fill: none; stroke: #b0b0b0; stroke-width: 0.8; stroke-linecap: square"/>
     </g>
     <g id="line2d_54">
      <g>
       <use xlink:href="#mb02f16854b" x="42.620313" y="305.314976" style="stroke: #000000; stroke-width: 0.8"/>
      </g>
     </g>
     <g id="text_22">
      <!-- 5 -->
      <g transform="translate(29.257813 309.114195) scale(0.1 -0.1)">
       <use xlink:href="#DejaVuSans-35"/>
      </g>
     </g>
    </g>
    <g id="text_23">
     <!-- Signal Error -->
     <g transform="translate(14.798438 374.266927) rotate(-90) scale(0.1 -0.1)">
      <defs>
       <path id="DejaVuSans-45" d="M 628 4666 
L 3578 4666 
L 3578 4134 
L 1259 4134 
L 1259 2753 
L 3481 2753 
L 3481 2222 
L 1259 2222 
L 1259 531 
L 3634 531 
L 3634 0 
L 628 0 
L 628 4666 
z
" transform="scale(0.015625)"/>
       <path id="DejaVuSans-72" d="M 2631 2963 
Q 2534 3019 2420 3045 
Q 2306 3072 2169 3072 
Q 1681 3072 1420 2755 
Q 1159 2438 1159 1844 
L 1159 0 
L 581 0 
L 581 3500 
L 1159 3500 
L 1159 2956 
Q 1341 3275 1631 3429 
Q 1922 3584 2338 3584 
Q 2397 3584 2469 3576 
Q 2541 3569 2628 3553 
L 2631 2963 
z
" transform="scale(0.015625)"/>
      </defs>
      <use xlink:href="#DejaVuSans-53"/>
      <use xlink:href="#DejaVuSans-69" transform="translate(63.476562 0)"/>
      <use xlink:href="#DejaVuSans-67" transform="translate(91.259766 0)"/>
      <use xlink:href="#DejaVuSans-6e" transform="translate(154.736328 0)"/>
      <use xlink:href="#DejaVuSans-61" transform="translate(218.115234 0)"/>
      <use xlink:href="#DejaVuSans-6c" transform="translate(279.394531 0)"/>
      <use xlink:href="#DejaVuSans-20" transform="translate(307.177734 0)"/>
      <use xlink:href="#DejaVuSans-45" transform="translate(338.964844 0)"/>
      <use xlink:href="#DejaVuSans-72" transform="translate(402.148438 0)"/>
      <use xlink:href="#DejaVuSans-72" transform="translate(441.511719 0)"/>
      <use xlink:href="#DejaVuSans-6f" transform="translate(480.375 0)"/>
      <use xlink:href="#DejaVuSans-72" transform="translate(541.556641 0)"/>
     </g>
    </g>
    <g id="text_24">
     <!-- 1e−8 -->
     <g transform="translate(42.620313 283.786667) scale(0.1 -0.1)">
      <defs>
       <path id="DejaVuSans-38" d="M 2034 2216 
Q 1584 2216 1326 1975 
Q 1069 1734 1069 1313 
Q 1069 891 1326 650 
Q 1584 409 2034 409 
Q 2484 409 2743 651 
Q 3003 894 3003 1313 
Q 3003 1734 2745 1975 
Q 2488 2216 2034 2216 
z
M 1403 2484 
Q 997 2584 770 2862 
Q 544 3141 544 3541 
Q 544 4100 942 4425 
Q 1341 4750 2034 4750 
Q 2731 4750 3128 4425 
Q 3525 4100 3525 3541 
Q 3525 3141 3298 2862 
Q 3072 2584 2669 2484 
Q 3125 2378 3379 2068 
Q 3634 1759 3634 1313 
Q 3634 634 3220 271 
Q 2806 -91 2034 -91 
Q 1263 -91 848 271 
Q 434 634 434 1313 
Q 434 1759 690 2068 
Q 947 2378 1403 2484 
z
M 1172 3481 
Q 1172 3119 1398 2916 
Q 1625 2713 2034 2713 
Q 2441 2713 2670 2916 
Q 2900 3119 2900 3481 
Q 2900 3844 2670 4047 
Q 2441 4250 2034 4250 
Q 1625 4250 1398 4047 
Q 1172 3844 1172 3481 
z
" transform="scale(0.015625)"/>
      </defs>
      <use xlink:href="#DejaVuSans-31"/>
      <use xlink:href="#DejaVuSans-65" transform="translate(63.623047 0)"/>
      <use xlink:href="#DejaVuSans-2212" transform="translate(125.146484 0)"/>
      <use xlink:href="#DejaVuSans-38" transform="translate(208.935547 0)"/>
     </g>
    </g>
   </g>
   <g id="line2d_55">
    <path d="M 42.620313 396.72489 
L 44.064712 398.077413 
L 45.509112 399.138472 
L 46.953512 399.91755 
L 48.266603 400.389839 
L 49.579694 400.646057 
L 50.892784 400.69509 
L 52.337184 400.520862 
L 53.781584 400.120164 
L 55.357293 399.440505 
L 57.064311 398.438811 
L 58.902638 397.077402 
L 60.872274 395.326147 
L 63.104529 393.020445 
L 65.599401 390.102263 
L 68.488201 386.36499 
L 72.164855 381.214941 
L 78.467691 371.91561 
L 84.507908 363.155703 
L 88.44718 357.832075 
L 91.861216 353.589273 
L 94.881325 350.175996 
L 97.770125 347.238625 
L 100.527616 344.748585 
L 103.153797 342.66818 
L 105.779979 340.871756 
L 108.274851 339.423845 
L 110.769724 338.220319 
L 113.395905 337.20595 
L 116.022087 336.43576 
L 118.648268 335.892367 
L 121.405759 335.544832 
L 124.294559 335.400138 
L 127.445976 335.465047 
L 130.991322 335.769848 
L 135.061903 336.355795 
L 140.051648 337.310974 
L 148.32412 339.161791 
L 158.30361 341.333614 
L 164.869063 342.525706 
L 170.909281 343.397257 
L 177.080808 344.060902 
L 183.777571 344.551597 
L 191.524806 344.888491 
L 201.241678 345.078076 
L 217.261385 345.131602 
L 302.218358 345.040529 
L 317.844138 344.755092 
L 333.863846 344.229969 
L 351.984499 343.666486 
L 361.307443 343.606172 
L 369.054679 343.773105 
L 376.276678 344.150533 
L 383.498677 344.751188 
L 391.377222 345.63363 
L 401.356712 346.99276 
L 418.426892 349.345697 
L 425.386273 350.052337 
L 431.557799 350.459554 
L 437.335399 350.622154 
L 442.981689 350.562808 
L 448.759288 350.280542 
L 455.062124 349.742207 
L 462.415433 348.879988 
L 473.970631 347.265969 
L 489.727721 345.111184 
L 509.030155 342.553025 
L 514.413827 341.5643 
L 519.009645 340.50252 
L 523.211535 339.307736 
L 527.150808 337.960843 
L 530.958771 336.429534 
L 534.766734 334.662865 
L 538.706006 332.590672 
L 543.039206 330.049214 
L 548.16026 326.770457 
L 561.02855 318.386445 
L 564.442586 316.5161 
L 567.200076 315.246564 
L 567.725312 315.034535 
L 567.725312 315.034535 
" clip-path="url(#p6d99fdf06b)" style="fill: none; stroke: #0000ff; stroke-width: 1.5; stroke-linecap: square"/>
   </g>
   <g id="line2d_56">
    <path d="M 42.620313 345.133333 
L 567.725312 345.133333 
L 567.725312 345.133333 
" clip-path="url(#p6d99fdf06b)" style="fill: none; stroke: #008000; stroke-width: 1.5; stroke-linecap: square"/>
   </g>
   <g id="patch_9">
    <path d="M 42.620313 403.48 
L 42.620313 286.786667 
" style="fill: none; stroke: #000000; stroke-width: 0.8; stroke-linejoin: miter; stroke-linecap: square"/>
   </g>
   <g id="patch_10">
    <path d="M 567.725312 403.48 
L 567.725312 286.786667 
" style="fill: none; stroke: #000000; stroke-width: 0.8; stroke-linejoin: miter; stroke-linecap: square"/>
   </g>
   <g id="patch_11">
    <path d="M 42.620313 403.48 
L 567.725312 403.48 
" style="fill: none; stroke: #000000; stroke-width: 0.8; stroke-linejoin: miter; stroke-linecap: square"/>
   </g>
   <g id="patch_12">
    <path d="M 42.620313 286.786667 
L 567.725312 286.786667 
" style="fill: none; stroke: #000000; stroke-width: 0.8; stroke-linejoin: miter; stroke-linecap: square"/>
   </g>
   <g id="legend_2">
    <g id="patch_13">
     <path d="M 504.355 309.464792 
L 560.725312 309.464792 
Q 562.725312 309.464792 562.725312 307.464792 
L 562.725312 293.786667 
Q 562.725312 291.786667 560.725312 291.786667 
L 504.355 291.786667 
Q 502.355 291.786667 502.355 293.786667 
L 502.355 307.464792 
Q 502.355 309.464792 504.355 309.464792 
z
" style="fill: #ffffff; opacity: 0.8; stroke: #cccccc; stroke-linejoin: miter"/>
    </g>
    <g id="line2d_57">
     <path d="M 506.355 299.885104 
L 516.355 299.885104 
L 526.355 299.885104 
" style="fill: none; stroke: #0000ff; stroke-width: 1.5; stroke-linecap: square"/>
    </g>
    <g id="text_25">
     <!-- Error -->
     <g transform="translate(534.355 303.385104) scale(0.1 -0.1)">
      <use xlink:href="#DejaVuSans-45"/>
      <use xlink:href="#DejaVuSans-72" transform="translate(63.183594 0)"/>
      <use xlink:href="#DejaVuSans-72" transform="translate(102.546875 0)"/>
      <use xlink:href="#DejaVuSans-6f" transform="translate(141.410156 0)"/>
      <use xlink:href="#DejaVuSans-72" transform="translate(202.591797 0)"/>
     </g>
    </g>
   </g>
  </g>
  <g id="text_26">
   <!-- Smooth Continuation of Random Signal with DOF=8 -->
   <g transform="translate(141.220625 16.318125) scale(0.12 -0.12)">
    <defs>
     <path id="DejaVuSans-68" d="M 3513 2113 
L 3513 0 
L 2938 0 
L 2938 2094 
Q 2938 2591 2744 2837 
Q 2550 3084 2163 3084 
Q 1697 3084 1428 2787 
Q 1159 2491 1159 1978 
L 1159 0 
L 581 0 
L 581 4863 
L 1159 4863 
L 1159 2956 
Q 1366 3272 1645 3428 
Q 1925 3584 2291 3584 
Q 2894 3584 3203 3211 
Q 3513 2838 3513 2113 
z
" transform="scale(0.015625)"/>
     <path id="DejaVuSans-52" d="M 2841 2188 
Q 3044 2119 3236 1894 
Q 3428 1669 3622 1275 
L 4263 0 
L 3584 0 
L 2988 1197 
Q 2756 1666 2539 1819 
Q 2322 1972 1947 1972 
L 1259 1972 
L 1259 0 
L 628 0 
L 628 4666 
L 2053 4666 
Q 2853 4666 3247 4331 
Q 3641 3997 3641 3322 
Q 3641 2881 3436 2590 
Q 3231 2300 2841 2188 
z
M 1259 4147 
L 1259 2491 
L 2053 2491 
Q 2509 2491 2742 2702 
Q 2975 2913 2975 3322 
Q 2975 3731 2742 3939 
Q 2509 4147 2053 4147 
L 1259 4147 
z
" transform="scale(0.015625)"/>
     <path id="DejaVuSans-77" d="M 269 3500 
L 844 3500 
L 1563 769 
L 2278 3500 
L 2956 3500 
L 3675 769 
L 4391 3500 
L 4966 3500 
L 4050 0 
L 3372 0 
L 2619 2869 
L 1863 0 
L 1184 0 
L 269 3500 
z
" transform="scale(0.015625)"/>
     <path id="DejaVuSans-44" d="M 1259 4147 
L 1259 519 
L 2022 519 
Q 2988 519 3436 956 
Q 3884 1394 3884 2338 
Q 3884 3275 3436 3711 
Q 2988 4147 2022 4147 
L 1259 4147 
z
M 628 4666 
L 1925 4666 
Q 3281 4666 3915 4102 
Q 4550 3538 4550 2338 
Q 4550 1131 3912 565 
Q 3275 0 1925 0 
L 628 0 
L 628 4666 
z
" transform="scale(0.015625)"/>
     <path id="DejaVuSans-4f" d="M 2522 4238 
Q 1834 4238 1429 3725 
Q 1025 3213 1025 2328 
Q 1025 1447 1429 934 
Q 1834 422 2522 422 
Q 3209 422 3611 934 
Q 4013 1447 4013 2328 
Q 4013 3213 3611 3725 
Q 3209 4238 2522 4238 
z
M 2522 4750 
Q 3503 4750 4090 4092 
Q 4678 3434 4678 2328 
Q 4678 1225 4090 567 
Q 3503 -91 2522 -91 
Q 1538 -91 948 565 
Q 359 1222 359 2328 
Q 359 3434 948 4092 
Q 1538 4750 2522 4750 
z
" transform="scale(0.015625)"/>
     <path id="DejaVuSans-46" d="M 628 4666 
L 3309 4666 
L 3309 4134 
L 1259 4134 
L 1259 2759 
L 3109 2759 
L 3109 2228 
L 1259 2228 
L 1259 0 
L 628 0 
L 628 4666 
z
" transform="scale(0.015625)"/>
     <path id="DejaVuSans-3d" d="M 678 2906 
L 4684 2906 
L 4684 2381 
L 678 2381 
L 678 2906 
z
M 678 1631 
L 4684 1631 
L 4684 1100 
L 678 1100 
L 678 1631 
z
" transform="scale(0.015625)"/>
    </defs>
    <use xlink:href="#DejaVuSans-53"/>
    <use xlink:href="#DejaVuSans-6d" transform="translate(63.476562 0)"/>
    <use xlink:href="#DejaVuSans-6f" transform="translate(160.888672 0)"/>
    <use xlink:href="#DejaVuSans-6f" transform="translate(222.070312 0)"/>
    <use xlink:href="#DejaVuSans-74" transform="translate(283.251953 0)"/>
    <use xlink:href="#DejaVuSans-68" transform="translate(322.460938 0)"/>
    <use xlink:href="#DejaVuSans-20" transform="translate(385.839844 0)"/>
    <use xlink:href="#DejaVuSans-43" transform="translate(417.626953 0)"/>
    <use xlink:href="#DejaVuSans-6f" transform="translate(487.451172 0)"/>
    <use xlink:href="#DejaVuSans-6e" transform="translate(548.632812 0)"/>
    <use xlink:href="#DejaVuSans-74" transform="translate(612.011719 0)"/>
    <use xlink:href="#DejaVuSans-69" transform="translate(651.220703 0)"/>
    <use xlink:href="#DejaVuSans-6e" transform="translate(679.003906 0)"/>
    <use xlink:href="#DejaVuSans-75" transform="translate(742.382812 0)"/>
    <use xlink:href="#DejaVuSans-61" transform="translate(805.761719 0)"/>
    <use xlink:href="#DejaVuSans-74" transform="translate(867.041016 0)"/>
    <use xlink:href="#DejaVuSans-69" transform="translate(906.25 0)"/>
    <use xlink:href="#DejaVuSans-6f" transform="translate(934.033203 0)"/>
    <use xlink:href="#DejaVuSans-6e" transform="translate(995.214844 0)"/>
    <use xlink:href="#DejaVuSans-20" transform="translate(1058.59375 0)"/>
    <use xlink:href="#DejaVuSans-6f" transform="translate(1090.380859 0)"/>
    <use xlink:href="#DejaVuSans-66" transform="translate(1151.5625 0)"/>
    <use xlink:href="#DejaVuSans-20" transform="translate(1186.767578 0)"/>
    <use xlink:href="#DejaVuSans-52" transform="translate(1218.554688 0)"/>
    <use xlink:href="#DejaVuSans-61" transform="translate(1285.787109 0)"/>
    <use xlink:href="#DejaVuSans-6e" transform="translate(1347.066406 0)"/>
    <use xlink:href="#DejaVuSans-64" transform="translate(1410.445312 0)"/>
    <use xlink:href="#DejaVuSans-6f" transform="translate(1473.921875 0)"/>
    <use xlink:href="#DejaVuSans-6d" transform="translate(1535.103516 0)"/>
    <use xlink:href="#DejaVuSans-20" transform="translate(1632.515625 0)"/>
    <use xlink:href="#DejaVuSans-53" transform="translate(1664.302734 0)"/>
    <use xlink:href="#DejaVuSans-69" transform="translate(1727.779297 0)"/>
    <use xlink:href="#DejaVuSans-67" transform="translate(1755.5625 0)"/>
    <use xlink:href="#DejaVuSans-6e" transform="translate(1819.039062 0)"/>
    <use xlink:href="#DejaVuSans-61" transform="translate(1882.417969 0)"/>
    <use xlink:href="#DejaVuSans-6c" transform="translate(1943.697266 0)"/>
    <use xlink:href="#DejaVuSans-20" transform="translate(1971.480469 0)"/>
    <use xlink:href="#DejaVuSans-77" transform="translate(2003.267578 0)"/>
    <use xlink:href="#DejaVuSans-69" transform="translate(2085.054688 0)"/>
    <use xlink:href="#DejaVuSans-74" transform="translate(2112.837891 0)"/>
    <use xlink:href="#DejaVuSans-68" transform="translate(2152.046875 0)"/>
    <use xlink:href="#DejaVuSans-20" transform="translate(2215.425781 0)"/>
    <use xlink:href="#DejaVuSans-44" transform="translate(2247.212891 0)"/>
    <use xlink:href="#DejaVuSans-4f" transform="translate(2324.214844 0)"/>
    <use xlink:href="#DejaVuSans-46" transform="translate(2402.925781 0)"/>
    <use xlink:href="#DejaVuSans-3d" transform="translate(2460.445312 0)"/>
    <use xlink:href="#DejaVuSans-38" transform="translate(2544.234375 0)"/>
   </g>
  </g>
 </g>
 <defs>
  <clipPath id="pcda9958a4f">
   <rect x="42.620313" y="33.32" width="525.105" height="233.386667"/>
  </clipPath>
  <clipPath id="p6d99fdf06b">
   <rect x="42.620313" y="286.786667" width="525.105" height="116.693333"/>
  </clipPath>
 </defs>
</svg>
